<svg width="16" height="16" viewBox="0 0 16 16" fill="none" xmlns="http://www.w3.org/2000/svg">
<path fill-rule="evenodd" clip-rule="evenodd" d="M3.5 7.5C3.5 8.32843 2.82843 9 2 9C1.17157 9 0.5 8.32843 0.5 7.5C0.5 6.67157 1.17157 6 2 6C2.82843 6 3.5 6.67157 3.5 7.5ZM9.5 7.5C9.5 8.32843 8.82843 9 8 9C7.17157 9 6.5 8.32843 6.5 7.5C6.5 6.67157 7.17157 6 8 6C8.82843 6 9.5 6.67157 9.5 7.5ZM14 9C14.8284 9 15.5 8.32843 15.5 7.5C15.5 6.67157 14.8284 6 14 6C13.1716 6 12.5 6.67157 12.5 7.5C12.5 8.32843 13.1716 9 14 9Z" fill="#676879"/>
</svg>
