<svg width="16" height="16" viewBox="0 0 16 16" fill="none" xmlns="http://www.w3.org/2000/svg">
<path fill-rule="evenodd" clip-rule="evenodd" d="M5.35357 2.14645C5.54883 2.34171 5.54883 2.65829 5.35357 2.85355L2.20712 6H13C13.2762 6 13.5 6.22386 13.5 6.5C13.5 6.77614 13.2762 7 13 7H1.00001C0.797783 7 0.615465 6.87818 0.538075 6.69134C0.460684 6.5045 0.503462 6.28945 0.646461 6.14645L4.64646 2.14645C4.84172 1.95118 5.15831 1.95118 5.35357 2.14645Z" fill="#676879"/>
<path fill-rule="evenodd" clip-rule="evenodd" d="M10.6464 13.8536C10.4512 13.6583 10.4512 13.3417 10.6464 13.1464L13.7929 10L2.99999 10C2.72384 10 2.49999 9.77614 2.49999 9.5C2.49999 9.22386 2.72384 9 2.99999 9L15 9C15.2022 9 15.3845 9.12182 15.4619 9.30866C15.5393 9.4955 15.4965 9.71055 15.3535 9.85355L11.3535 13.8536C11.1583 14.0488 10.8417 14.0488 10.6464 13.8536Z" fill="#676879"/>
</svg>
