<svg width="16" height="16" viewBox="0 0 16 16" fill="none" xmlns="http://www.w3.org/2000/svg">
<g clip-path="url(#clip0)">
<path d="M7.17019 8.8512H12.9061C13.1701 8.8512 13.3842 9.06526 13.3842 9.3293C13.3842 13.0253 10.3881 16.0214 6.69209 16.0214C2.99647 16.0214 0 13.0251 0 9.3293C0 5.63389 2.99668 2.63721 6.69209 2.63721C6.95614 2.63721 7.17019 2.85126 7.17019 3.1153V8.8512ZM0.956187 9.3293C0.956187 12.497 3.52454 15.0652 6.69209 15.0652C9.69904 15.0652 12.1654 12.7516 12.4084 9.80739H6.69209C6.42805 9.80739 6.214 9.59334 6.214 9.3293V3.61305C3.27028 3.85607 0.956187 6.32297 0.956187 9.3293Z" fill="#676879"/>
<path d="M9.39411 7.15261C9.13007 7.15261 8.91602 6.93856 8.91602 6.67451V0.460516C8.91602 0.196472 9.13007 -0.0175781 9.39411 -0.0175781C13.0899 -0.0175781 16.0862 2.97889 16.0862 6.67451C16.0862 6.93856 15.8722 7.15261 15.6081 7.15261H9.39411ZM9.8722 6.19642H15.1104C14.8804 3.41015 12.6586 1.18822 9.8722 0.958254V6.19642Z" fill="#676879"/>
</g>
<defs>
<clipPath id="clip0">
<rect width="16" height="16" fill="white"/>
</clipPath>
</defs>
</svg>
