<svg width="16" height="16" viewBox="0 0 16 16" fill="none" xmlns="http://www.w3.org/2000/svg">
<path d="M8 15C11.866 15 15 11.866 15 8C15 4.13401 11.866 1 8 1C4.13401 1 1 4.13401 1 8C1 11.866 4.13401 15 8 15ZM8 16C3.58172 16 0 12.4183 0 8C0 3.58172 3.58172 0 8 0C12.4183 0 16 3.58172 16 8C16 12.4183 12.4183 16 8 16ZM12.2641 11.2117C12.4677 11.3983 12.4814 11.7146 12.2948 11.9181C12.1082 12.1217 11.7919 12.1354 11.5884 11.9489L7.68218 8.36817C7.57887 8.27347 7.52004 8.13975 7.52004 7.99959V4.41891C7.52004 4.14277 7.7439 3.91891 8.02004 3.91891C8.29619 3.91891 8.52004 4.14277 8.52004 4.41891V7.77964L12.2641 11.2117Z" fill="#676879"/>
</svg>
