<svg width="16" height="16" viewBox="0 0 16 16" fill="none" xmlns="http://www.w3.org/2000/svg">
<path fill-rule="evenodd" clip-rule="evenodd" d="M11.179 1.64013L11.1407 3.62499H13.0287L11.179 1.64013ZM10.1455 0.999998L10.0854 4.11577C10.08 4.39547 10.3156 4.62499 10.6081 4.62499H13.2874V11.9091C13.2874 12.1326 13.0999 12.3125 12.8695 12.3125H5.27398C5.04354 12.3125 4.85611 12.1326 4.85611 11.9091V1.40334C4.85611 1.18037 5.04395 0.999998 5.27398 0.999998H10.1455ZM10.5727 0.0101526C10.5148 0.00342577 10.4563 0 10.3974 0H5.27415C4.4656 0 3.81054 0.629016 3.81054 1.40333V2.68749H2.46361C1.6553 2.68749 1 3.31718 1 4.09083V14.5966C1 15.3716 1.65482 16 2.46361 16H10.0591C10.8679 16 11.5227 15.3716 11.5227 14.5966V13.3125H12.8697C13.6785 13.3125 14.3333 12.6841 14.3333 11.9091V4.14216C14.3335 4.13646 14.3336 4.13074 14.3336 4.12499C14.3336 4.11925 14.3335 4.11352 14.3333 4.10783V4.05824C14.3333 3.71196 14.2011 3.37803 13.9606 3.12178L11.4886 0.469068C11.3631 0.334533 11.2133 0.225881 11.0485 0.147156C10.9561 0.0584237 10.829 0.00257903 10.6877 8.68104e-05C10.6483 -0.000608942 10.6098 0.00288936 10.5727 0.0101526ZM5.27415 13.3125H10.477V14.5966C10.477 14.8201 10.2896 15 10.0591 15H2.46361C2.23317 15 2.04574 14.8201 2.04574 14.5966V4.09083C2.04574 3.86838 2.23399 3.68749 2.46361 3.68749H3.81054V11.9091C3.81054 12.6841 4.46536 13.3125 5.27415 13.3125Z" fill="#676879"/>
</svg>
