<svg width="16" height="16" viewBox="0 0 16 16" fill="none" xmlns="http://www.w3.org/2000/svg">
<path fill-rule="evenodd" clip-rule="evenodd" d="M16 12.3194C16 13.2377 15.3066 14 14.4286 14H1.57143C0.69336 14 0 13.2377 0 12.3194V3.68063C0 2.76177 0.693169 2 1.57143 2H14.4286C15.3068 2 16 2.76177 16 3.68063V12.3194ZM14.2756 3.00525L8.00211 6.90771L1.83873 3.00525H14.2756ZM15 3.73674V12.3194C15 12.7016 14.7334 12.9948 14.4286 12.9948H1.57143C1.26664 12.9948 1 12.7016 1 12.3194V3.68064C1 3.67452 1.00007 3.66842 1.0002 3.66234L7.73329 7.92552C7.89492 8.02786 8.10044 8.02868 8.26288 7.92764L15 3.73674Z" fill="#676879"/>
</svg>
