<svg width="16" height="16" viewBox="0 0 16 16" fill="none" xmlns="http://www.w3.org/2000/svg">
<g clip-path="url(#clip0)">
<path fill-rule="evenodd" clip-rule="evenodd" d="M5.09619 3.14645C5.29146 2.95118 5.60804 2.95118 5.8033 3.14645C5.99856 3.34171 5.99856 3.65829 5.8033 3.85355L1.18194 8.47491L5.8033 13.0963C5.99856 13.2915 5.99856 13.6081 5.8033 13.8034C5.60804 13.9986 5.29146 13.9986 5.09619 13.8034L0.146447 8.85363C0.0424129 8.7496 -0.00619267 8.61112 0.000629822 8.47491C-0.0061913 8.3387 0.0424144 8.20023 0.146447 8.09619L5.09619 3.14645ZM10.9038 3.14645C10.7085 2.95118 10.392 2.95118 10.1967 3.14645C10.0014 3.34171 10.0014 3.65829 10.1967 3.85355L14.8181 8.47491L10.1967 13.0963C10.0014 13.2915 10.0014 13.6081 10.1967 13.8034C10.392 13.9986 10.7085 13.9986 10.9038 13.8034L15.8536 8.85363C15.9576 8.7496 16.0062 8.61112 15.9994 8.47491C16.0062 8.3387 15.9576 8.20023 15.8536 8.09619L10.9038 3.14645Z" fill="#676879"/>
</g>
<defs>
<clipPath id="clip0">
<rect width="16" height="16" fill="white"/>
</clipPath>
</defs>
</svg>
