<svg width="16" height="16" viewBox="0 0 16 16" fill="none" xmlns="http://www.w3.org/2000/svg">
<path fill-rule="evenodd" clip-rule="evenodd" d="M15.0513 13.137H9.28372L9.27428 12.4198H10.6582V11.1908H9.2581L9.25162 10.464H10.6582V9.23498H9.24065L9.23423 8.50823H10.6582V7.27917H9.22958V6.55242H10.6582V5.32336H9.22958L9.23489 4.43026H10.6635V3.2012H9.23489V1.91239H15.0513V13.137ZM9.30285 1.33401H14.9619C15.3381 1.33401 15.6431 1.60815 15.6431 1.94627V13.0349C15.6431 13.373 15.3381 13.6472 14.9619 13.6472H9.30285V15.6234L0 14.0214V1.4361L9.30285 0V1.33401ZM2.50276 5.02266L3.75294 7.81226L2.4 10.4175L3.56457 10.5202L4.42091 8.35768L5.2772 10.6059L6.54458 10.6916L5.08883 7.7421L6.54458 4.8L5.34573 4.86852L4.45515 7.02648L3.70161 4.95419L2.50276 5.02266Z" fill="#676879"/>
<path fill-rule="evenodd" clip-rule="evenodd" d="M11.2002 4.42925V3.2002H13.6152V4.42925H11.2002ZM11.2002 6.02925V4.8002H13.6152V6.02925H11.2002ZM11.2002 7.62925V6.4002H13.6152V7.62925H11.2002ZM11.2002 9.22925V8.0002H13.6152V9.22925H11.2002ZM11.2002 10.8293V9.6002H13.6152V10.8293H11.2002ZM11.2002 12.4293V11.2002H13.6152V12.4293H11.2002Z" fill="#676879"/>
</svg>
