<svg width="16" height="16" viewBox="0 0 16 16" fill="none" xmlns="http://www.w3.org/2000/svg">
<g clip-path="url(#clip0)">
<path d="M9.14116 0.000638821C9.08082 -0.00154553 9.02047 0.00173085 8.96013 0.0126521L0.911638 1.45205C0.383621 1.54706 0 2.01012 0 2.55289V13.4477C0 13.9916 0.383621 14.4547 0.911638 14.5486L8.96013 15.988C9.00754 15.9967 9.05603 16 9.10345 16C9.29741 16 9.48491 15.9323 9.6347 15.8045C9.82328 15.6451 9.93103 15.4103 9.93103 15.1613V14H15.1724C15.6282 14 16 13.6232 16 13.1613V2.96789C16 2.50593 15.6282 2 15.1724 2H9.93103V0.838285C9.93103 0.590376 9.82328 0.355573 9.6347 0.196126C9.49461 0.0759941 9.32112 0.00828364 9.14116 0.000638821ZM8.71336 1.01948C8.7834 1.02603 8.83405 1.05989 8.86099 1.08282C8.89871 1.11449 8.96013 1.18439 8.96013 1.29688V14.6562C8.96013 14.7698 8.89871 14.8397 8.86099 14.8714C8.82435 14.9031 8.74677 14.9522 8.63685 14.9326L1.45582 13.7067C1.19181 13.6597 1 13.4282 1 13.1562V2.9375C1 2.66557 1.19181 2.43404 1.45582 2.38708L8.63578 1.02166C8.66379 1.0173 8.68965 1.0162 8.71336 1.01948ZM9.93103 3.00781H14.7241C14.8761 3.00781 15 3.1334 15 3.28739V12.7532C15 12.9072 14.8761 13.0327 14.7241 13.0327H9.93103V11.6349H10.7586C10.9106 11.6349 11.0345 11.5103 11.0345 11.3553C11.0345 11.2002 10.9106 11.0757 10.7586 11.0757H9.93103V9.95737H10.7586C10.9106 9.95737 11.0345 9.83287 11.0345 9.6778C11.0345 9.52272 10.9106 9.39822 10.7586 9.39822H9.93103V8.2799H10.7586C10.9106 8.2799 11.0345 8.1554 11.0345 8.00032C11.0345 7.84524 10.9106 7.72074 10.7586 7.72074H9.93103V6.60242H10.7586C10.9106 6.60242 11.0345 6.47792 11.0345 6.32284C11.0345 6.16776 10.9106 6.04326 10.7586 6.04326H9.93103V4.92495H10.7586C10.9106 4.92495 11.0345 4.80045 11.0345 4.64537C11.0345 4.49029 10.9106 4.36579 10.7586 4.36579H9.93103V3.00781ZM11.8621 4.36579C11.7101 4.36579 11.5862 4.49029 11.5862 4.64537C11.5862 4.80045 11.7101 4.92495 11.8621 4.92495H13.5172C13.6692 4.92495 13.7931 4.80045 13.7931 4.64537C13.7931 4.49029 13.6692 4.36579 13.5172 4.36579H11.8621ZM2.98599 4.92932C2.95043 4.93587 2.91595 4.94897 2.88362 4.96972C2.75647 5.05382 2.71983 5.22746 2.8028 5.35742L4.49892 8.00032L2.8028 10.6432C2.71983 10.7732 2.75647 10.9468 2.88362 11.0309C2.93103 11.0615 2.98276 11.0757 3.03448 11.0757C3.12392 11.0757 3.21336 11.0309 3.26616 10.949L4.82759 8.51361L6.38901 10.949C6.44181 11.0309 6.53125 11.0757 6.62069 11.0757C6.67241 11.0757 6.72414 11.0615 6.77155 11.0309C6.89871 10.9468 6.93534 10.7732 6.85237 10.6432L5.15625 8.00032L6.85237 5.35742C6.93534 5.22746 6.89871 5.05382 6.77155 4.96972C6.64332 4.88563 6.47198 4.92276 6.38901 5.05163L4.82759 7.48703L3.26616 5.05163C3.20366 4.95443 3.09159 4.90966 2.98599 4.92932ZM11.8621 6.04326C11.7101 6.04326 11.5862 6.16776 11.5862 6.32284C11.5862 6.47792 11.7101 6.60242 11.8621 6.60242H13.5172C13.6692 6.60242 13.7931 6.47792 13.7931 6.32284C13.7931 6.16776 13.6692 6.04326 13.5172 6.04326H11.8621ZM11.8621 7.72074C11.7101 7.72074 11.5862 7.84524 11.5862 8.00032C11.5862 8.1554 11.7101 8.2799 11.8621 8.2799H13.5172C13.6692 8.2799 13.7931 8.1554 13.7931 8.00032C13.7931 7.84524 13.6692 7.72074 13.5172 7.72074H11.8621ZM11.8621 9.39822C11.7101 9.39822 11.5862 9.52272 11.5862 9.6778C11.5862 9.83287 11.7101 9.95737 11.8621 9.95737H13.5172C13.6692 9.95737 13.7931 9.83287 13.7931 9.6778C13.7931 9.52272 13.6692 9.39822 13.5172 9.39822H11.8621ZM11.8621 11.0757C11.7101 11.0757 11.5862 11.2002 11.5862 11.3553C11.5862 11.5103 11.7101 11.6349 11.8621 11.6349H13.5172C13.6692 11.6349 13.7931 11.5103 13.7931 11.3553C13.7931 11.2002 13.6692 11.0757 13.5172 11.0757H11.8621Z" fill="#676879"/>
</g>
<defs>
<clipPath id="clip0">
<rect width="16" height="16" fill="white"/>
</clipPath>
</defs>
</svg>
