<svg width="16" height="16" viewBox="0 0 16 16" fill="none" xmlns="http://www.w3.org/2000/svg">
<path fill-rule="evenodd" clip-rule="evenodd" d="M7.59666 0.23275C7.61593 0.202278 7.63879 0.173441 7.66525 0.146848C7.7705 0.041052 7.9111 -0.00757882 8.04884 0.000955602C8.17201 0.00446672 8.29413 0.0534647 8.38813 0.147949C8.4142 0.174157 8.4368 0.202538 8.45591 0.232513L12.0914 3.88667C12.2862 4.08247 12.2862 4.39992 12.0914 4.59572C11.8966 4.79151 11.5808 4.79151 11.386 4.59572L8.50002 1.69494V9.9718C8.50002 10.2479 8.27616 10.4718 8.00002 10.4718C7.72387 10.4718 7.50002 10.2479 7.50002 9.9718V1.75135L4.67582 4.59003C4.48056 4.78629 4.16397 4.78629 3.96871 4.59003C3.77345 4.39376 3.77345 4.07556 3.96871 3.87929L7.59666 0.23275ZM0 10.9717C0 10.6955 0.223858 10.4717 0.5 10.4717C0.776142 10.4717 1 10.6955 1 10.9717V14.9946H15V10.9717C15 10.6955 15.2239 10.4717 15.5 10.4717C15.7761 10.4717 16 10.6955 16 10.9717V15.4972V15.4999C16 15.776 15.7761 15.9999 15.5 15.9999L15.4888 15.9998H0.511203L0.5 15.9999C0.223858 15.9999 0 15.776 0 15.4999V15.4972V10.9717ZM3.5 12.9845C3.5 12.7069 3.72501 12.4819 4.00256 12.4819H11.9974C12.275 12.4819 12.5 12.7069 12.5 12.9845C12.5 13.2621 12.275 13.4871 11.9974 13.4871H4.00256C3.72501 13.4871 3.5 13.2621 3.5 12.9845Z" fill="#676879"/>
</svg>
