<svg width="16" height="16" viewBox="0 0 16 16" fill="none" xmlns="http://www.w3.org/2000/svg">
<path d="M0.503937 4.00111C0.22562 4.00111 0 3.777 0 3.50056C0 3.22411 0.22562 3 0.503937 3H15.4961C15.7744 3 16 3.22411 16 3.50056C16 3.777 15.7744 4.00111 15.4961 4.00111H0.503937Z" fill="#676879"/>
<path d="M3.20413 9.00062C2.92582 9.00062 2.7002 8.77652 2.7002 8.50007C2.7002 8.22362 2.92582 7.99951 3.20413 7.99951H12.7726C13.0509 7.99951 13.2765 8.22362 13.2765 8.50007C13.2765 8.77652 13.0509 9.00062 12.7726 9.00062H3.20413Z" fill="#676879"/>
<path d="M6.21292 14.0001C5.9346 14.0001 5.70898 13.776 5.70898 13.4996C5.70898 13.2231 5.9346 12.999 6.21292 12.999H9.92656C10.2049 12.999 10.4305 13.2231 10.4305 13.4996C10.4305 13.776 10.2049 14.0001 9.92656 14.0001H6.21292Z" fill="#676879"/>
<path d="M0.503937 4.00111C0.22562 4.00111 0 3.777 0 3.50056C0 3.22411 0.22562 3 0.503937 3H15.4961C15.7744 3 16 3.22411 16 3.50056C16 3.777 15.7744 4.00111 15.4961 4.00111H0.503937Z" fill="#676879"/>
<path d="M3.20413 9.00062C2.92582 9.00062 2.7002 8.77652 2.7002 8.50007C2.7002 8.22362 2.92582 7.99951 3.20413 7.99951H12.7726C13.0509 7.99951 13.2765 8.22362 13.2765 8.50007C13.2765 8.77652 13.0509 9.00062 12.7726 9.00062H3.20413Z" fill="#676879"/>
<path d="M6.21292 14.0001C5.9346 14.0001 5.70898 13.776 5.70898 13.4996C5.70898 13.2231 5.9346 12.999 6.21292 12.999H9.92656C10.2049 12.999 10.4305 13.2231 10.4305 13.4996C10.4305 13.776 10.2049 14.0001 9.92656 14.0001H6.21292Z" fill="#676879"/>
</svg>
