<svg width="16" height="16" viewBox="0 0 16 16" fill="none" xmlns="http://www.w3.org/2000/svg">
<g clip-path="url(#clip0)">
<path fill-rule="evenodd" clip-rule="evenodd" d="M4.25 1H1.65771L6.54165 5.88393C6.73691 6.0792 6.73691 6.39578 6.54165 6.59104C6.34639 6.7863 6.0298 6.7863 5.83454 6.59104L1 1.7565V4.25C1 4.52614 0.776142 4.75 0.5 4.75C0.223858 4.75 0 4.52614 0 4.25V0.7C0 0.313401 0.313401 0 0.7 0H4.25C4.52614 0 4.75 0.223858 4.75 0.5C4.75 0.776142 4.52614 1 4.25 1ZM11.25 0.5C11.25 0.223858 11.4739 0 11.75 0H15.3C15.6866 0 16 0.313402 16 0.7V4.25C16 4.52614 15.7761 4.75 15.5 4.75C15.2239 4.75 15 4.52614 15 4.25V1.65478L10.0638 6.59096C9.86856 6.78623 9.55198 6.78623 9.35671 6.59096C9.16145 6.3957 9.16145 6.07912 9.35671 5.88386L14.2406 1H11.75C11.4739 1 11.25 0.776142 11.25 0.5ZM0.5 11.25C0.776142 11.25 1 11.4739 1 11.75V14.2406L5.83223 9.40834C6.02749 9.21308 6.34407 9.21308 6.53933 9.40834C6.7346 9.60361 6.7346 9.92019 6.53933 10.1154L1.65478 15H4.25C4.52614 15 4.75 15.2239 4.75 15.5C4.75 15.7761 4.52614 16 4.25 16H0.7C0.313402 16 0 15.6866 0 15.3V11.75C0 11.4739 0.223858 11.25 0.5 11.25ZM15.5 11.25C15.7761 11.25 16 11.4739 16 11.75V15.3C16 15.6866 15.6866 16 15.3 16H11.75C11.4739 16 11.25 15.7761 11.25 15.5C11.25 15.2239 11.4739 15 11.75 15H14.2435L9.35903 10.1155C9.16376 9.92026 9.16376 9.60368 9.35903 9.40842C9.55429 9.21316 9.87087 9.21316 10.0661 9.40842L15 14.3423V11.75C15 11.4739 15.2239 11.25 15.5 11.25Z" fill="#676879"/>
</g>
<defs>
<clipPath id="clip0">
<rect width="16" height="16" fill="white"/>
</clipPath>
</defs>
</svg>
