<svg width="16" height="16" viewBox="0 0 16 16" fill="none" xmlns="http://www.w3.org/2000/svg">
<g clip-path="url(#clip0)">
<path d="M5.77541 3.53618C5.98346 3.74423 6.32077 3.74423 6.52882 3.53618L7.65894 2.40606C9.32333 0.741672 12.0218 0.741672 13.6862 2.40606C15.3506 4.07045 15.3506 6.76896 13.6862 8.43335L12.5561 9.56346C12.3481 9.77151 12.3481 10.1088 12.5561 10.3169C12.7642 10.5249 13.1015 10.5249 13.3095 10.3169L14.4396 9.18676C16.5201 7.10627 16.5201 3.73314 14.4396 1.65265C12.3591 -0.427836 8.98602 -0.427837 6.90553 1.65265L5.77541 2.78277C5.56736 2.99081 5.56736 3.32813 5.77541 3.53618Z" fill="#676879"/>
<path d="M3.51518 5.79641C3.72323 6.00446 3.72323 6.34177 3.51518 6.54982L2.38506 7.67994C0.720676 9.34433 0.720676 12.0428 2.38506 13.7072C4.04945 15.3716 6.74796 15.3716 8.41235 13.7072L9.54247 12.5771C9.75051 12.3691 10.0878 12.3691 10.2959 12.5771C10.5039 12.7852 10.5039 13.1225 10.2959 13.3305L9.16576 14.4606C7.08527 16.5411 3.71214 16.5411 1.63165 14.4606C-0.448832 12.3801 -0.448833 9.00701 1.63165 6.92653L2.76177 5.79641C2.96982 5.58836 3.30713 5.58836 3.51518 5.79641Z" fill="#676879"/>
<path d="M11.0493 5.043C10.8412 4.83495 10.5039 4.83495 10.2959 5.043L5.022 10.3169C4.81395 10.5249 4.81395 10.8622 5.022 11.0703C5.23005 11.2783 5.56736 11.2783 5.77541 11.0703L11.0493 5.79641C11.2573 5.58836 11.2573 5.25105 11.0493 5.043Z" fill="#676879"/>
</g>
<defs>
<clipPath id="clip0">
<rect width="16" height="16" fill="white"/>
</clipPath>
</defs>
</svg>
