<svg width="16" height="16" viewBox="0 0 16 16" fill="none" xmlns="http://www.w3.org/2000/svg">
<path d="M2.69244 6H13.3076C14.2423 6 15 6.68215 15 7.52363V14.4764C15 15.3178 14.2423 16 13.3076 16H2.69244C1.75773 16 1 15.3178 1 14.4764V7.52363C1 6.68215 1.75773 6 2.69244 6Z" fill="#676879"/>
<path d="M8.5 11.5556V9.44444C8.5 9.19898 8.27614 9 8 9C7.72386 9 7.5 9.19898 7.5 9.44444V11.5556C7.5 11.801 7.72386 12 8 12C8.27614 12 8.5 11.801 8.5 11.5556Z" fill="white"/>
<path d="M4.96241 6.52941V3.82353C4.96241 2.23356 6.31903 0.941176 8 0.941176C9.68023 0.941176 11.0376 2.23397 11.0376 3.82353V6.52941C11.0376 6.78931 11.253 7 11.5188 7C11.7846 7 12 6.78931 12 6.52941V3.82353C12 1.70852 10.2061 0 8 0C5.79307 0 4 1.70816 4 3.82353V6.52941C4 6.78931 4.21544 7 4.4812 7C4.74696 7 4.96241 6.78931 4.96241 6.52941Z" fill="#676879"/>
</svg>
