<svg width="16" height="16" viewBox="0 0 16 16" fill="none" xmlns="http://www.w3.org/2000/svg">
<path fill-rule="evenodd" clip-rule="evenodd" d="M3.58779 16C2.71127 16 2 15.2843 2 14.3995V1.60051C2 0.7165 2.71157 0 3.58779 0H9.53996C9.9905 0 10.4205 0.194326 10.7224 0.533515L13.5946 3.76553C13.856 4.05768 14 4.43906 14 4.83492V14.3995C14 15.2843 13.2887 16 12.4122 16H3.58779ZM13.0102 5.5V14.3995C13.0102 14.7311 12.743 15 12.4121 15H3.58768C3.25684 15 2.98958 14.7311 2.98958 14.3995V1.60051C2.98958 1.26956 3.25729 1 3.58768 1H9.36074L9.36208 5.00017C9.36217 5.27625 9.58369 5.5 9.85692 5.5H13.0102C13.0102 5.5 13.0102 5.5 13.0102 5.5ZM10.3506 1.61206L12.8592 4.43494C12.8776 4.45549 12.8945 4.47724 12.9097 4.5H10.3516L10.3506 1.61206Z" fill="#676879"/>
</svg>
