<svg width="17" height="16" viewBox="0 0 17 16" fill="none" xmlns="http://www.w3.org/2000/svg">
<path fill-rule="evenodd" clip-rule="evenodd" d="M5.7097 14.9326C4.18073 14.3014 2.9033 13.1825 2.07624 11.75L2.87911 11.2865C3.60394 12.5419 4.72347 13.5225 6.06344 14.0756C7.40341 14.6288 8.88866 14.7234 10.288 14.3448C11.6873 13.9662 12.9223 13.1357 13.8006 11.9824C14.6789 10.8291 15.1513 9.41779 15.1443 7.96815C15.1372 6.51852 14.6512 5.11187 13.7617 3.96715C12.8723 2.82243 11.6294 2.00386 10.2264 1.63885C8.82349 1.27384 7.33923 1.38287 6.00468 1.94897C4.70177 2.50164 3.61292 3.45969 2.89889 4.67953L4.37709 5.31225C4.75621 5.47453 4.81749 5.98637 4.4874 6.23356L1.32645 8.6006C0.996352 8.84779 0.52245 8.64494 0.473426 8.23547L0.00398203 4.31449C-0.0450421 3.90502 0.367581 3.59604 0.746703 3.75831L2.04072 4.3122C2.85388 2.87219 4.12019 1.7413 5.64265 1.09549C7.16543 0.449554 8.85904 0.325149 10.4599 0.741642C12.0607 1.15813 13.4789 2.09216 14.4938 3.39834C15.5087 4.70451 16.0633 6.30956 16.0713 7.96366C16.0794 9.61776 15.5403 11.2281 14.5381 12.5441C13.5359 13.86 12.1268 14.8077 10.5301 15.2397C8.9334 15.6717 7.23867 15.5637 5.7097 14.9326Z" fill="#676879"/>
</svg>
