<svg width="16" height="16" viewBox="0 0 16 16" fill="none" xmlns="http://www.w3.org/2000/svg">
<path fill-rule="evenodd" clip-rule="evenodd" d="M12.476 6.91189C12.4426 6.96635 12.3804 7 12.3125 7H3.6875C3.61963 7 3.55737 6.96635 3.52437 6.91189C3.50787 6.88518 3.5 6.8557 3.5 6.82656C3.5 6.79534 3.509 6.76447 3.527 6.73672L7.8395 0.146097C7.87362 0.0940656 7.93437 0.0625 8 0.0625C8.06563 0.0625 8.12637 0.0940656 8.1605 0.146444L12.473 6.73707C12.5075 6.79083 12.509 6.85778 12.476 6.91189ZM12.5385 9.27454C12.5715 9.328 12.57 9.39413 12.5355 9.44725L8.223 15.7922C8.18887 15.8439 8.12813 15.8751 8.0625 15.8751C7.99687 15.8751 7.93612 15.8439 7.902 15.7925L3.5895 9.44759C3.5715 9.42018 3.5625 9.38968 3.5625 9.35884C3.5625 9.33005 3.57037 9.30093 3.58687 9.27454C3.61987 9.22074 3.68213 9.1875 3.75 9.1875H12.375C12.4429 9.1875 12.5051 9.22074 12.5385 9.27454Z" fill="#676879"/>
</svg>
