<svg width="16" height="16" viewBox="0 0 16 16" fill="none" xmlns="http://www.w3.org/2000/svg">
<path fill-rule="evenodd" clip-rule="evenodd" d="M0.5 0C0.223858 0 0 0.223858 0 0.5C0 0.776142 0.223858 1 0.5 1H1.45761C1.45529 1.01953 1.4541 1.03941 1.4541 1.05957V13.5C1.4541 13.7761 1.67835 14 1.95449 14H7V15.1C7 15.5971 7.40294 16 7.9 16H15.1C15.5971 16 16 15.5971 16 15.1V11.9C16 11.4029 15.5971 11 15.1 11H7.9C7.40294 11 7 11.4029 7 11.9V13H2.4541V5H7V6.1C7 6.59706 7.40294 7 7.9 7H15.1C15.5971 7 16 6.59706 16 6.1V2.9C16 2.40294 15.5971 2 15.1 2H7.9C7.40294 2 7 2.40294 7 2.9V4H2.4541V1.05957C2.4541 1.03941 2.45291 1.01953 2.45059 1H3.5C3.77614 1 4 0.776142 4 0.5C4 0.223858 3.77614 0 3.5 0H0.5ZM8 4.5V6H15V3H8V4.5ZM8 15V13.5V12H15V15H8Z" fill="#676879"/>
</svg>
