<svg width="16" height="16" viewBox="0 0 16 16" fill="none" xmlns="http://www.w3.org/2000/svg">
<path fill-rule="evenodd" clip-rule="evenodd" d="M11.6462 9.85355C11.451 9.65829 11.451 9.34171 11.6462 9.14645C11.8415 8.95118 12.1581 8.95118 12.3533 9.14645L14.4746 11.2678C14.6699 11.463 14.6699 11.7796 14.4746 11.9749L12.3533 14.0962C12.1581 14.2915 11.8415 14.2915 11.6462 14.0962C11.451 13.9009 11.451 13.5843 11.6462 13.3891L13.0353 12L1.5 12C1.22386 12 1 11.7761 1 11.5C1 11.2239 1.22386 11 1.5 11L12.7927 11L11.6462 9.85355Z" fill="#676879"/>
<path fill-rule="evenodd" clip-rule="evenodd" d="M3.97487 2.85355C4.17014 2.65829 4.17014 2.34171 3.97487 2.14645C3.77961 1.95118 3.46303 1.95118 3.26777 2.14645L1.14645 4.26777C0.951185 4.46303 0.951185 4.77961 1.14645 4.97487L3.26777 7.09619C3.46303 7.29146 3.77961 7.29146 3.97487 7.09619C4.17014 6.90093 4.17014 6.58435 3.97487 6.38909L2.58579 5L14.5 5C14.7761 5 15 4.77614 15 4.5C15 4.22386 14.7761 4 14.5 4L2.82843 4L3.97487 2.85355Z" fill="#676879"/>
</svg>
