<svg width="16" height="16" viewBox="0 0 16 16" fill="none" xmlns="http://www.w3.org/2000/svg">
<path fill-rule="evenodd" clip-rule="evenodd" d="M6 1H13C14.1046 1 15 1.89543 15 3V5H6V1ZM16 6V5V3C16 1.34315 14.6569 0 13 0H6H5H3C1.34315 0 0 1.34315 0 3V5V6V10V11V13C0 14.6569 1.34315 16 3 16H5H6H13C14.6569 16 16 14.6569 16 13V11V10V6ZM15 10V6H6V10H15ZM5 10V6H1V10H5ZM1 11H5V15H3C1.89543 15 1 14.1046 1 13V11ZM6 11H15V13C15 14.1046 14.1046 15 13 15H6V11ZM1 3V5H5V1H3C1.89543 1 1 1.89543 1 3Z" fill="#676879"/>
</svg>
