<svg width="16" height="16" viewBox="0 0 16 16" fill="none" xmlns="http://www.w3.org/2000/svg">
<path fill-rule="evenodd" clip-rule="evenodd" d="M8.6875 4.42293C8.6875 6.12652 7.31908 7.51236 5.625 7.51236C3.93092 7.51236 2.5625 6.12652 2.5625 4.42293C2.5625 2.71934 3.93092 1.3335 5.625 1.3335C7.31908 1.3335 8.6875 2.71934 8.6875 4.42293ZM7.6875 4.42295C7.6875 3.2601 6.76133 2.32214 5.625 2.32214C4.48867 2.32214 3.5625 3.2601 3.5625 4.42295C3.5625 5.58581 4.48867 6.52377 5.625 6.52377C6.76133 6.52377 7.6875 5.58581 7.6875 4.42295ZM9.72955 9.74008C8.71109 8.56368 7.2227 7.82121 5.5625 7.82121C2.48631 7.82121 0 10.3703 0 13.5058C0 13.7788 0.223858 14.0001 0.5 14.0001H10.6155V14.0002H15.5C15.7761 14.0002 16 13.7789 16 13.5059C16 11.1526 14.0903 9.24249 11.7316 9.24249C11.023 9.24249 10.3392 9.41598 9.72955 9.74008ZM10.3167 10.5532C10.7507 11.2816 11.0288 12.1172 11.1043 13.0116H14.963C14.7251 11.4366 13.3679 10.2311 11.7316 10.2311C11.2337 10.2311 10.7528 10.3428 10.3167 10.5532ZM1.02518 13.0115C1.26533 10.6473 3.20884 8.80987 5.56273 8.80987C7.91661 8.80987 9.86012 10.6473 10.1003 13.0115H1.02518ZM11.7188 8.74808C13.0438 8.74808 14.125 7.71421 14.125 6.43101C14.125 5.1478 13.0438 4.11393 11.7188 4.11393C10.3937 4.11393 9.3125 5.1478 9.3125 6.43101C9.3125 7.71421 10.3937 8.74808 11.7188 8.74808ZM11.7188 5.10257C12.4988 5.10257 13.125 5.70134 13.125 6.43103C13.125 7.16072 12.4988 7.75948 11.7188 7.75948C10.9387 7.75948 10.3125 7.16072 10.3125 6.43103C10.3125 5.70134 10.9387 5.10257 11.7188 5.10257Z" fill="#676879"/>
</svg>
