<svg width="16" height="16" viewBox="0 0 16 16" fill="none" xmlns="http://www.w3.org/2000/svg">
<path d="M2.69244 6H13.3076C14.2423 6 15 6.68215 15 7.52363V14.4764C15 15.3178 14.2423 16 13.3076 16H2.69244C1.75773 16 1 15.3178 1 14.4764V7.52363C1 6.68215 1.75773 6 2.69244 6Z" fill="#676879"/>
<path d="M8.5 11.5556V9.44444C8.5 9.19898 8.27614 9 8 9C7.72386 9 7.5 9.19898 7.5 9.44444V11.5556C7.5 11.801 7.72386 12 8 12C8.27614 12 8.5 11.801 8.5 11.5556Z" fill="white"/>
<path d="M4.99998 6.53398V3.78641C4.99998 2.20956 6.37673 0.932039 8.07746 0.932039C8.93091 0.932039 9.72766 1.25529 10.3051 1.81691C10.5772 2.08151 10.8436 2.58498 11.0218 3.12748C11.1027 3.37358 11.3822 3.51198 11.6463 3.43662C11.9103 3.36126 12.0588 3.10067 11.978 2.85458C11.758 2.18516 11.4286 1.5625 11.0271 1.17203C10.2628 0.428692 9.20615 0 8.07746 0C5.82545 0 4 1.69388 4 3.78641V6.53398C4 6.79136 4.22385 7 4.49999 7C4.77613 7 4.99998 6.79136 4.99998 6.53398Z" fill="#676879"/>
</svg>
