<svg width="16" height="16" viewBox="0 0 16 16" fill="none" xmlns="http://www.w3.org/2000/svg">
<path fill-rule="evenodd" clip-rule="evenodd" d="M4.7746 12.9091C4.99841 12.8034 5.25285 12.7854 5.48895 12.8585C6.2659 13.0993 7.11142 13.2322 7.99965 13.2322C12.0658 13.2322 15 10.5379 15 7.62361C15 4.7079 12.0658 2.01433 7.99965 2.01433C3.93344 2.01433 0.999446 4.70791 1 7.62341C1 9.11586 1.7373 10.5166 3.02472 11.5611C3.39317 11.86 3.50552 12.3795 3.29425 12.8074L2.7786 13.8519L4.7746 12.9091ZM0.599679 16L2.4001 12.3532C0.918301 11.1511 1.01306e-07 9.47593 1.01306e-07 7.62361C-0.00069548 3.96485 3.58068 1 7.99965 1C12.4186 1 16 3.96485 16 7.62361C16 11.281 12.4186 14.2465 7.99965 14.2465C7.01317 14.2465 6.06913 14.099 5.19675 13.8286L0.599679 16Z" fill="#676879"/>
</svg>
