<svg width="16" height="16" viewBox="0 0 16 16" fill="none" xmlns="http://www.w3.org/2000/svg">
<rect width="16" height="16" fill="white"/>
<path fill-rule="evenodd" clip-rule="evenodd" d="M5.63315 4.8C5.82339 3.66489 6.80975 2.8 8 2.8C9.1891 2.8 10.1764 3.66498 10.3668 4.8H5.63315ZM4.82474 4.8C5.02142 3.22165 6.36685 2 8 2C9.63175 2 10.9784 3.22155 11.1752 4.8H15.6C15.8209 4.8 16 4.97909 16 5.2V9.2V15.6C16 15.8209 15.8209 16 15.6 16H0.4C0.179086 16 0 15.8209 0 15.6V9.2V5.2C0 4.97909 0.179086 4.8 0.4 4.8H4.82474ZM15.2 8.8H9.6V8.4C9.6 8.17909 9.42091 8 9.2 8H6.8C6.57909 8 6.4 8.17909 6.4 8.4V8.8H0.8V5.6H15.2V8.8ZM8.8 8.8V9.2V10.8H7.2L7.2 9.2L7.2 8.8H8.8ZM6.4 11.2V9.6H0.8V15.2H15.2V9.6H9.6V11.2C9.6 11.4209 9.42091 11.6 9.2 11.6H6.8C6.57909 11.6 6.4 11.4209 6.4 11.2Z" fill="#676879"/>
</svg>
