<svg width="16" height="16" viewBox="0 0 16 16" fill="none" xmlns="http://www.w3.org/2000/svg">
<path fill-rule="evenodd" clip-rule="evenodd" d="M6.89244 10.9945V7.41374C6.89244 6.5063 7.30174 5.96061 7.99025 5.96061C8.67876 5.96061 9.08805 6.5063 9.08805 7.41374V12.557C9.08805 13.9894 8.26512 14.9867 7.03844 14.9867C5.81176 14.9867 4.98882 13.9894 4.98882 12.557V4.41895C4.98882 2.4547 6.23264 1.0127 7.99025 1.0127C9.74786 1.0127 10.9917 2.4547 10.9917 4.41895V10.9294C10.9917 11.2055 11.2104 11.4294 11.4802 11.4294C11.75 11.4294 11.9688 11.2055 11.9688 10.9294V4.41895C11.9688 1.92825 10.3165 0.0126953 7.99025 0.0126953C5.664 0.0126953 4.01172 1.92825 4.01172 4.41895V12.557C4.01172 14.5077 5.23209 15.9867 7.03844 15.9867C8.84479 15.9867 10.0652 14.5077 10.0652 12.557V7.41374C10.0652 6.00309 9.28323 4.96061 7.99025 4.96061C6.69727 4.96061 5.91534 6.00309 5.91534 7.41374V10.9945C5.91534 11.2706 6.13408 11.4945 6.40389 11.4945C6.67371 11.4945 6.89244 11.2706 6.89244 10.9945Z" fill="#676879"/>
</svg>
