<svg width="16" height="16" viewBox="0 0 16 16" fill="none" xmlns="http://www.w3.org/2000/svg">
<path fill-rule="evenodd" clip-rule="evenodd" d="M12.829 5.88551H8.54233L9.62829 0.55333C9.77873 0.085176 9.14619 -0.212251 8.88527 0.185594L2.76957 9.37901C2.5174 9.68018 2.7547 10.1125 3.16966 10.1145H7.45636L6.3704 15.4467C6.21996 15.9148 6.8525 16.2122 7.11343 15.8144L13.2291 6.62099C13.4813 6.31982 13.244 5.88745 12.829 5.88551ZM7.62871 6.25316C7.491 6.56676 7.7189 6.86227 8.0288 6.80476H12.0297L7.68587 13.3014L8.37174 9.74666C8.50379 9.44715 8.29554 9.13283 8.0288 9.19505H3.97072L8.31458 2.69837L7.62871 6.25316Z" fill="#676879"/>
</svg>
