<svg width="16" height="16" viewBox="0 0 16 16" fill="none" xmlns="http://www.w3.org/2000/svg">
<path fill-rule="evenodd" clip-rule="evenodd" d="M3.09091 0H12.9091C13.5153 0 14 0.470887 14 1.05837V14.9416C14 15.5291 13.5153 16 12.9091 16C12.6303 16 12.3549 15.8892 12.139 15.6887L7.96791 11.642L3.86096 15.6887C3.42531 16.1027 2.73986 16.1027 2.32086 15.6887C2.11406 15.4947 2 15.2272 2 14.9416V1.05837C2 0.470887 2.48469 0 3.09091 0ZM3.09129 0.99612C3.05202 0.99612 3.02712 1.02032 3.02712 1.05838V14.9416C3.02712 14.9642 3.03298 14.9779 3.02712 15.0039C3.06513 15.0092 3.10036 15.0092 3.09129 15.0039L7.26241 10.9572C7.67525 10.5638 8.32551 10.5638 8.73835 10.9572L12.9095 15.0039C12.8891 14.9982 12.9033 15.0039 12.9095 15.0039C12.9487 15.0039 12.9736 14.9797 12.9736 14.9416V1.05838C12.9736 1.02032 12.9487 0.99612 12.9095 0.99612H3.09129Z" fill="#676879"/>
</svg>
