<svg width="16" height="16" viewBox="0 0 16 16" fill="none" xmlns="http://www.w3.org/2000/svg">
<g clip-path="url(#clip0)">
<mask id="path-1-inside-1" fill="white">
<path fill-rule="evenodd" clip-rule="evenodd" d="M15.0001 7.5C15.0001 4.46243 12.5377 2 9.50013 2C9.22399 2 9.00013 1.77614 9.00013 1.5C9.00013 1.22386 9.22399 1 9.50013 1C13.09 1 16.0001 3.91015 16.0001 7.5C16.0001 7.77614 15.7763 8 15.5001 8C15.224 8 15.0001 7.77614 15.0001 7.5ZM13 7.50013C13 5.56713 11.433 4.00013 9.5 4.00013C9.22386 4.00013 9 3.77627 9 3.50013C9 3.22399 9.22386 3.00013 9.5 3.00013C11.9853 3.00013 14 5.01485 14 7.50013C14 7.77627 13.7761 8.00013 13.5 8.00013C13.2239 8.00013 13 7.77627 13 7.50013ZM11.0002 7.49992C11.0002 6.67149 10.3286 5.99992 9.50021 5.99992C9.22407 5.99992 9.00021 5.77606 9.00021 5.49992C9.00021 5.22378 9.22407 4.99992 9.50021 4.99992C10.8809 4.99992 12.0002 6.11921 12.0002 7.49992C12.0002 7.77606 11.7764 7.99992 11.5002 7.99992C11.2241 7.99992 11.0002 7.77606 11.0002 7.49992ZM7 4H4H3H2C0.895431 4 0 4.89543 0 6V12C0 13.1046 0.89543 14 2 14H3H4H12C13.1046 14 14 13.1046 14 12V10H13V12C13 12.5523 12.5523 13 12 13H4V5H7V4ZM2 5H3V13H2C1.44772 13 1 12.5523 1 12V6C1 5.44772 1.44772 5 2 5Z"/>
</mask>
<path fill-rule="evenodd" clip-rule="evenodd" d="M15.0001 7.5C15.0001 4.46243 12.5377 2 9.50013 2C9.22399 2 9.00013 1.77614 9.00013 1.5C9.00013 1.22386 9.22399 1 9.50013 1C13.09 1 16.0001 3.91015 16.0001 7.5C16.0001 7.77614 15.7763 8 15.5001 8C15.224 8 15.0001 7.77614 15.0001 7.5ZM13 7.50013C13 5.56713 11.433 4.00013 9.5 4.00013C9.22386 4.00013 9 3.77627 9 3.50013C9 3.22399 9.22386 3.00013 9.5 3.00013C11.9853 3.00013 14 5.01485 14 7.50013C14 7.77627 13.7761 8.00013 13.5 8.00013C13.2239 8.00013 13 7.77627 13 7.50013ZM11.0002 7.49992C11.0002 6.67149 10.3286 5.99992 9.50021 5.99992C9.22407 5.99992 9.00021 5.77606 9.00021 5.49992C9.00021 5.22378 9.22407 4.99992 9.50021 4.99992C10.8809 4.99992 12.0002 6.11921 12.0002 7.49992C12.0002 7.77606 11.7764 7.99992 11.5002 7.99992C11.2241 7.99992 11.0002 7.77606 11.0002 7.49992ZM7 4H4H3H2C0.895431 4 0 4.89543 0 6V12C0 13.1046 0.89543 14 2 14H3H4H12C13.1046 14 14 13.1046 14 12V10H13V12C13 12.5523 12.5523 13 12 13H4V5H7V4ZM2 5H3V13H2C1.44772 13 1 12.5523 1 12V6C1 5.44772 1.44772 5 2 5Z" fill="#676879"/>
<path d="M9.50013 2V3V2ZM9.5 4.00013V3.00013H9.5L9.5 4.00013ZM13.5 8.00013L13.5 9.00013H13.5V8.00013ZM9.50021 4.99992L9.50021 5.99992H9.50021V4.99992ZM11.5002 7.99992V6.99992H11.5002L11.5002 7.99992ZM7 4H8V3H7V4ZM14 10H15V9H14V10ZM13 10V9H12V10H13ZM4 13H3V14H4V13ZM4 5V4H3V5H4ZM7 5V6H8V5H7ZM3 5H4V4H3V5ZM3 13V14H4V13H3ZM9.50013 3C11.9854 3 14.0001 5.01472 14.0001 7.5H16.0001C16.0001 3.91015 13.09 1 9.50013 1V3ZM8.00013 1.5C8.00013 2.32843 8.67171 3 9.50013 3V1C9.77627 1 10.0001 1.22386 10.0001 1.5H8.00013ZM9.50013 0C8.67171 0 8.00013 0.671572 8.00013 1.5H10.0001C10.0001 1.77614 9.77627 2 9.50013 2V0ZM17.0001 7.5C17.0001 3.35786 13.6423 0 9.50013 0V2C12.5377 2 15.0001 4.46243 15.0001 7.5H17.0001ZM15.5001 9C16.3286 9 17.0001 8.32843 17.0001 7.5H15.0001C15.0001 7.22386 15.224 7 15.5001 7V9ZM14.0001 7.5C14.0001 8.32843 14.6717 9 15.5001 9V7C15.7763 7 16.0001 7.22386 16.0001 7.5H14.0001ZM9.5 5.00013C10.8807 5.00013 12 6.11942 12 7.50013H14C14 5.01485 11.9853 3.00013 9.5 3.00013V5.00013ZM8 3.50013C8 4.32856 8.67157 5.00013 9.5 5.00013L9.5 3.00013C9.77614 3.00013 10 3.22399 10 3.50013H8ZM9.5 2.00013C8.67157 2.00013 8 2.67171 8 3.50013H10C10 3.77627 9.77614 4.00013 9.5 4.00013V2.00013ZM15 7.50013C15 4.46257 12.5376 2.00013 9.5 2.00013V4.00013C11.433 4.00013 13 5.56713 13 7.50013H15ZM13.5 9.00013C14.3284 9.00013 15 8.32856 15 7.50013H13C13 7.22399 13.2239 7.00013 13.5 7.00013V9.00013ZM12 7.50013C12 8.32856 12.6716 9.00013 13.5 9.00013L13.5 7.00013C13.7761 7.00013 14 7.22399 14 7.50013H12ZM9.50021 6.99992C9.77636 6.99992 10.0002 7.22378 10.0002 7.49992H12.0002C12.0002 6.11921 10.8809 4.99992 9.50021 4.99992V6.99992ZM8.00021 5.49992C8.00021 6.32835 8.67179 6.99992 9.50021 6.99992V4.99992C9.77636 4.99992 10.0002 5.22378 10.0002 5.49992H8.00021ZM9.50021 3.99992C8.67179 3.99992 8.00021 4.67149 8.00021 5.49992H10.0002C10.0002 5.77606 9.77636 5.99992 9.50021 5.99992L9.50021 3.99992ZM13.0002 7.49992C13.0002 5.56692 11.4332 3.99992 9.50021 3.99992V5.99992C10.3286 5.99992 11.0002 6.67149 11.0002 7.49992H13.0002ZM11.5002 8.99992C12.3286 8.99992 13.0002 8.32835 13.0002 7.49992H11.0002C11.0002 7.22377 11.2241 6.99992 11.5002 6.99992V8.99992ZM10.0002 7.49992C10.0002 8.32835 10.6718 8.99992 11.5002 8.99992L11.5002 6.99992C11.7764 6.99992 12.0002 7.22378 12.0002 7.49992H10.0002ZM4 5H7V3H4V5ZM3 5H4V3H3V5ZM2 5H3V3H2V5ZM1 6C1 5.44772 1.44772 5 2 5V3C0.343146 3 -1 4.34315 -1 6H1ZM1 12V6H-1V12H1ZM2 13C1.44772 13 1 12.5523 1 12H-1C-1 13.6569 0.343146 15 2 15V13ZM3 13H2V15H3V13ZM4 13H3V15H4V13ZM12 13H4V15H12V13ZM13 12C13 12.5523 12.5523 13 12 13V15C13.6569 15 15 13.6569 15 12H13ZM13 10V12H15V10H13ZM13 11H14V9H13V11ZM14 12V10H12V12H14ZM12 14C13.1046 14 14 13.1046 14 12H12V14ZM4 14H12V12H4V14ZM3 5V13H5V5H3ZM7 4H4V6H7V4ZM6 4V5H8V4H6ZM3 4H2V6H3V4ZM4 13V5H2V13H4ZM2 14H3V12H2V14ZM0 12C0 13.1046 0.895431 14 2 14V12H2H0ZM0 6V12H2V6H0ZM2 4C0.895431 4 0 4.89543 0 6H2V4Z" fill="#676879" mask="url(#path-1-inside-1)"/>
</g>
<defs>
<clipPath id="clip0">
<rect width="16" height="16" fill="white"/>
</clipPath>
</defs>
</svg>
