<svg width="16" height="16" viewBox="0 0 16 16" fill="none" xmlns="http://www.w3.org/2000/svg">
<path d="M15.4712 1.73649e-06C15.4323 0.000101783 15.3944 0.00449915 15.358 0.0127451L10.0282 0.0264386C9.74138 0.0271757 9.50824 0.261434 9.50751 0.549669C9.50678 0.837904 9.73872 1.07097 10.0256 1.07023L14.1746 1.05957L8.15174 7.11135C7.94942 7.31464 7.94942 7.64424 8.15174 7.84753C8.35406 8.05082 8.68208 8.05082 8.8844 7.84753L14.9485 1.75423L14.9377 6.01435C14.937 6.3019 15.1684 6.53441 15.4545 6.53368C15.7407 6.53294 15.9733 6.29924 15.974 6.01169L15.9877 0.645139C15.9957 0.609002 15.9999 0.571477 16 0.532988C16.0004 0.394226 15.9468 0.268251 15.8591 0.174994C15.7644 0.0673063 15.6258 -0.00039526 15.4712 1.73649e-06Z" fill="#676879"/>
<rect y="2" width="1" height="14" rx="0.5" fill="#676879"/>
<rect y="15" width="14" height="1" rx="0.5" fill="#676879"/>
<rect y="2" width="7" height="1" rx="0.5" fill="#676879"/>
<rect x="13" y="9" width="1" height="7" rx="0.5" fill="#676879"/>
</svg>
