<svg width="16" height="16" viewBox="0 0 16 16" fill="none" xmlns="http://www.w3.org/2000/svg">
<path d="M7.94505 0.542588C7.95633 0.51944 7.96763 0.510859 7.97356 0.507224C7.98095 0.502693 7.99 0.5 8 0.5C8.01 0.5 8.01905 0.502693 8.02644 0.507224C8.03237 0.510859 8.04367 0.51944 8.05495 0.542588L10.1359 4.8145L10.5854 4.59553L10.1359 4.8145C10.286 5.12256 10.5735 5.34747 10.9187 5.40499L15.4398 6.15829C15.4535 6.16057 15.4613 6.1652 15.4683 6.17172C15.477 6.17981 15.4875 6.1944 15.4941 6.21582C15.5079 6.26026 15.4972 6.29875 15.4719 6.32533L12.2369 9.71882C11.9996 9.96767 11.895 10.3138 11.9456 10.65L12.6589 15.3874C12.6665 15.4378 12.647 15.4701 12.6239 15.4876C12.612 15.4967 12.6021 15.4993 12.5969 15.4999C12.5939 15.5002 12.5869 15.5008 12.5723 15.493L8.49195 13.3184C8.18361 13.1541 7.81639 13.1541 7.50804 13.3184L3.42774 15.493C3.41314 15.5008 3.40609 15.5002 3.40313 15.4999C3.39789 15.4993 3.38795 15.4967 3.37605 15.4876C3.35301 15.4701 3.33353 15.4378 3.34111 15.3874L4.05436 10.65C4.10498 10.3138 4.00036 9.96767 3.76313 9.71881L0.528109 6.32533C0.502774 6.29875 0.49208 6.26026 0.505863 6.21582C0.512506 6.1944 0.52299 6.17981 0.531667 6.17172C0.53866 6.1652 0.546502 6.16057 0.560152 6.15829L5.08127 5.40499C5.42648 5.34747 5.71403 5.12256 5.8641 4.8145L7.94505 0.542588Z" stroke="#676879"/>
</svg>
