<svg width="16" height="16" viewBox="0 0 16 16" fill="none" xmlns="http://www.w3.org/2000/svg">
<path fill-rule="evenodd" clip-rule="evenodd" d="M6.0504 8.495V14.7832C6.0504 15.1258 6.39883 15.3622 6.72364 15.2398L9.62832 14.146C9.82044 14.0736 9.94734 13.892 9.94734 13.6893V8.495L15.8278 1.46639C16.0946 1.1475 15.8644 0.666504 15.445 0.666504H0.552732C0.133322 0.666504 -0.0968677 1.1475 0.169931 1.46639L6.0504 8.495ZM14.3926 1.64423L9.068 8.00841C8.99474 8.09597 8.95468 8.20592 8.95468 8.31941V13.3527L7.04224 14.0729V8.31941C7.04224 8.20592 7.00218 8.09597 6.92892 8.00841L1.60435 1.64423H14.3926Z" fill="#676879"/>
</svg>
