<svg width="17" height="16" viewBox="0 0 17 16" fill="none" xmlns="http://www.w3.org/2000/svg">
<path fill-rule="evenodd" clip-rule="evenodd" d="M2.02905 2.86744L3.44887 4.30709C2.29494 5.02663 1.24313 6.0449 0.296746 7.35812C-0.0741756 7.87281 -0.0741756 8.57166 0.296746 9.08636C2.37428 11.9692 4.95985 13.4306 8.01855 13.4306C9.32098 13.4306 10.5376 13.1657 11.6658 12.6388L12.8615 13.8512C13.0572 14.0496 13.3745 14.0496 13.5702 13.8512C13.7659 13.6527 13.7659 13.331 13.5702 13.1326L12.5885 12.1372C13.7423 11.4177 14.7941 10.3995 15.7404 9.08636C16.1113 8.57166 16.1113 7.87281 15.7404 7.35812C13.6628 4.4753 11.0773 3.01384 8.01855 3.01384C6.71625 3.01384 5.49972 3.27877 4.37165 3.80554L2.73776 2.14883C2.54205 1.95039 2.22475 1.95039 2.02905 2.14883C1.83334 2.34727 1.83334 2.669 2.02905 2.86744ZM1.10568 7.95775C2.03417 6.66935 3.05756 5.70113 4.17994 5.04839L6.31854 7.21686C5.70418 7.95305 5.73931 9.05643 6.42394 9.75062C7.10857 10.4448 8.19675 10.4804 8.9228 9.85749L10.9029 11.8653C10.0008 12.2321 9.03981 12.4144 8.01824 12.4144C5.29484 12.4144 3.00228 11.1186 1.10568 8.4868C0.992128 8.32924 0.992128 8.11531 1.10568 7.95775ZM8.20856 9.13328L7.03278 7.94108C6.80667 8.27503 6.83996 8.73523 7.13266 9.03201C7.42535 9.32879 7.87921 9.36255 8.20856 9.13328ZM14.9308 8.4868C14.0025 9.77491 12.9794 10.743 11.8573 11.3957L5.13438 4.57893C6.03631 4.21237 6.99698 4.03015 8.01824 4.03015C10.7416 4.03015 13.0342 5.32599 14.9308 7.95775C15.0444 8.11531 15.0444 8.32924 14.9308 8.4868Z" fill="#676879"/>
</svg>
