<svg width="16" height="16" viewBox="0 0 16 16" fill="none" xmlns="http://www.w3.org/2000/svg">
<path fill-rule="evenodd" clip-rule="evenodd" d="M1 4.88889H15V12.1111H1L1 4.88889ZM0 4.88889C0 4.39797 0.447715 4 1 4H15C15.5523 4 16 4.39797 16 4.88889V12.1111C16 12.602 15.5523 13 15 13H1C0.447715 13 0 12.602 0 12.1111V4.88889ZM4.5 10C4.22386 10 4 10.2239 4 10.5C4 10.7761 4.22386 11 4.5 11H11.5C11.7761 11 12 10.7761 12 10.5C12 10.2239 11.7761 10 11.5 10H4.5Z" fill="#676879"/>
<path d="M4 2C4 1.44772 4.44772 1 5 1V4H4V2Z" fill="#676879"/>
<path d="M9 0H10V1C10 1.55228 9.55228 2 9 2V0Z" fill="#676879"/>
<path d="M4 2C4 1.44772 4.44772 1 5 1H10C10 1.55228 9.55228 2 9 2H4Z" fill="#676879"/>
</svg>
