<svg width="16" height="16" viewBox="0 0 16 16" fill="none" xmlns="http://www.w3.org/2000/svg">
<path fill-rule="evenodd" clip-rule="evenodd" d="M7.08446 0.377846C6.84211 0.621538 6.70869 0.931692 6.70869 1.264V3.08431C6.70869 3.88431 6.48715 4.63754 6.06854 5.32554L5.29621 6.56862C5.18727 6.74585 5.03182 6.88 4.85557 6.96738C4.70135 6.48 4.25949 6.12431 3.72827 6.12431H1.19094C0.528764 6.12431 0 6.65723 0 7.32308V14.8012C0 15.4683 0.528764 16 1.19094 16H3.77356C4.43574 16 4.96573 15.4683 4.96573 14.8012V14.624C5.53856 15.1348 6.28886 15.4449 7.10649 15.4449H12.7111C13.2191 15.4449 13.727 15.2234 14.0808 14.8689C14.4333 14.5132 14.6095 14.0468 14.5875 13.5594C14.5875 13.3822 14.5667 13.2258 14.4994 13.0486C15.0955 12.7385 15.492 12.1157 15.492 11.4068C15.492 11.1618 15.448 10.9182 15.3599 10.6954C15.7576 10.3188 16 9.80923 16 9.27631C16 8.74339 15.7577 8.23385 15.3831 7.90031C15.6475 7.54585 15.7576 7.10154 15.7136 6.65723C15.6255 5.72554 14.7858 4.97108 13.8152 4.97108H10.9474L11.1224 3.59508C11.1665 3.17292 11.1665 2.81846 11.0796 2.46277C10.7491 1.02031 9.46879 0 7.98898 0C7.65851 0 7.32803 0.132923 7.08446 0.377846ZM4.9375 12.2183V8.12795C5.48857 7.99478 5.9527 7.6606 6.26252 7.17228L7.03525 5.92682C7.56427 5.08212 7.85206 4.10425 7.85206 3.10294V1.27914C7.85206 1.23475 7.8741 1.19159 7.89614 1.16939C7.91819 1.1472 7.96227 1.125 8.00636 1.125C8.97869 1.125 9.7955 1.79212 10.0159 2.72561C10.06 2.92537 10.0833 3.16953 10.038 3.45932L9.83959 5.01553C9.7955 5.28189 9.88367 5.54824 10.06 5.77144C10.2364 5.97121 10.5021 6.10562 10.7654 6.10562H13.8134C14.1882 6.10562 14.5653 6.41513 14.6082 6.77151C14.6302 7.03787 14.498 7.30546 14.2776 7.46083C14.0792 7.59524 13.9677 7.8394 13.9898 8.08356C14.0118 8.32772 14.1661 8.52749 14.4098 8.61751C14.6976 8.72849 14.8727 8.99485 14.8727 9.30683C14.896 9.59538 14.7405 9.84078 14.4759 9.97395C14.2996 10.0615 14.1661 10.2181 14.122 10.4191C14.0792 10.6189 14.122 10.8186 14.2543 10.974C14.3669 11.1072 14.4098 11.2638 14.4098 11.4192C14.4098 11.7743 14.1453 12.0863 13.7914 12.1517C13.571 12.1973 13.3726 12.3317 13.2844 12.5524C13.195 12.7756 13.217 12.9988 13.3493 13.1986C13.4387 13.3083 13.4828 13.4637 13.4828 13.6216C13.4828 13.7979 13.4167 13.9977 13.2844 14.1308C13.1289 14.2862 12.9072 14.375 12.6868 14.375H7.07933C5.90861 14.375 4.9375 13.4206 4.9375 12.2183ZM1.125 14.786V7.27647C1.125 7.23199 1.16894 7.1875 1.21166 7.1875H3.78712C3.83106 7.1875 3.875 7.23199 3.875 7.27647V14.786H3.85425C3.85425 14.8293 3.80909 14.875 3.76515 14.875H1.21166C1.16894 14.875 1.125 14.8293 1.125 14.786Z" fill="#676879"/>
<mask id="mask0" mask-type="alpha" maskUnits="userSpaceOnUse" x="0" y="0" width="16" height="16">
<path fill-rule="evenodd" clip-rule="evenodd" d="M7.08446 0.377846C6.84211 0.621538 6.70869 0.931692 6.70869 1.264V3.08431C6.70869 3.88431 6.48715 4.63754 6.06854 5.32554L5.29621 6.56862C5.18727 6.74585 5.03182 6.88 4.85557 6.96738C4.70135 6.48 4.25949 6.12431 3.72827 6.12431H1.19094C0.528764 6.12431 0 6.65723 0 7.32308V14.8012C0 15.4683 0.528764 16 1.19094 16H3.77356C4.43574 16 4.96573 15.4683 4.96573 14.8012V14.624C5.53856 15.1348 6.28886 15.4449 7.10649 15.4449H12.7111C13.2191 15.4449 13.727 15.2234 14.0808 14.8689C14.4333 14.5132 14.6095 14.0468 14.5875 13.5594C14.5875 13.3822 14.5667 13.2258 14.4994 13.0486C15.0955 12.7385 15.492 12.1157 15.492 11.4068C15.492 11.1618 15.448 10.9182 15.3599 10.6954C15.7576 10.3188 16 9.80923 16 9.27631C16 8.74339 15.7577 8.23385 15.3831 7.90031C15.6475 7.54585 15.7576 7.10154 15.7136 6.65723C15.6255 5.72554 14.7858 4.97108 13.8152 4.97108H10.9474L11.1224 3.59508C11.1665 3.17292 11.1665 2.81846 11.0796 2.46277C10.7491 1.02031 9.46879 0 7.98898 0C7.65851 0 7.32803 0.132923 7.08446 0.377846ZM4.9375 12.2183V8.12795C5.48857 7.99478 5.9527 7.6606 6.26252 7.17228L7.03525 5.92682C7.56427 5.08212 7.85206 4.10425 7.85206 3.10294V1.27914C7.85206 1.23475 7.8741 1.19159 7.89614 1.16939C7.91819 1.1472 7.96227 1.125 8.00636 1.125C8.97869 1.125 9.7955 1.79212 10.0159 2.72561C10.06 2.92537 10.0833 3.16953 10.038 3.45932L9.83959 5.01553C9.7955 5.28189 9.88367 5.54824 10.06 5.77144C10.2364 5.97121 10.5021 6.10562 10.7654 6.10562H13.8134C14.1882 6.10562 14.5653 6.41513 14.6082 6.77151C14.6302 7.03787 14.498 7.30546 14.2776 7.46083C14.0792 7.59524 13.9677 7.8394 13.9898 8.08356C14.0118 8.32772 14.1661 8.52749 14.4098 8.61751C14.6976 8.72849 14.8727 8.99485 14.8727 9.30683C14.896 9.59538 14.7405 9.84078 14.4759 9.97395C14.2996 10.0615 14.1661 10.2181 14.122 10.4191C14.0792 10.6189 14.122 10.8186 14.2543 10.974C14.3669 11.1072 14.4098 11.2638 14.4098 11.4192C14.4098 11.7743 14.1453 12.0863 13.7914 12.1517C13.571 12.1973 13.3726 12.3317 13.2844 12.5524C13.195 12.7756 13.217 12.9988 13.3493 13.1986C13.4387 13.3083 13.4828 13.4637 13.4828 13.6216C13.4828 13.7979 13.4167 13.9977 13.2844 14.1308C13.1289 14.2862 12.9072 14.375 12.6868 14.375H7.07933C5.90861 14.375 4.9375 13.4206 4.9375 12.2183ZM1.125 14.786V7.27647C1.125 7.23199 1.16894 7.1875 1.21166 7.1875H3.78712C3.83106 7.1875 3.875 7.23199 3.875 7.27647V14.786H3.85425C3.85425 14.8293 3.80909 14.875 3.76515 14.875H1.21166C1.16894 14.875 1.125 14.8293 1.125 14.786Z" fill="white"/>
</mask>
<g mask="url(#mask0)">
</g>
</svg>
