<svg width="16" height="16" viewBox="0 0 16 16" fill="none" xmlns="http://www.w3.org/2000/svg">
<path fill-rule="evenodd" clip-rule="evenodd" d="M14.6667 6.69579C14.6667 8.84335 13.5192 11.0232 11.6212 13.1443C10.9671 13.8752 10.2676 14.5474 9.56802 15.1468C9.32287 15.3568 9.09491 15.543 8.88979 15.7035C8.76533 15.8008 8.67513 15.8687 8.62488 15.9052C8.45084 16.0316 8.21583 16.0316 8.04179 15.9052C7.99153 15.8687 7.90134 15.8008 7.77688 15.7035C7.57176 15.543 7.34379 15.3568 7.09865 15.1468C6.39905 14.5474 5.69961 13.8752 5.04552 13.1443C3.14743 11.0232 2 8.84335 2 6.69579C2 2.93906 4.70959 0 8.33333 0C11.9566 0 14.6667 2.93931 14.6667 6.69579ZM8.92204 14.3895C9.5898 13.8168 10.2577 13.1743 10.8798 12.4784C12.6281 10.5229 13.6684 8.54455 13.6684 6.69704C13.6684 3.47593 11.3878 1 8.33344 1C5.27864 1 2.99847 3.47567 2.99847 6.69704C2.99847 8.54455 4.03882 10.5229 5.78705 12.4784C6.40916 13.1743 7.07708 13.8168 7.74484 14.3895C7.95644 14.5709 8.15406 14.7333 8.33344 14.875C8.51282 14.7333 8.71045 14.5709 8.92204 14.3895ZM8.3333 9.625C10.108 9.625 11.5468 8.16993 11.5468 6.375C11.5468 4.58007 10.108 3.125 8.3333 3.125C6.55855 3.125 5.11983 4.58007 5.11983 6.375C5.11983 8.16993 6.55855 9.625 8.3333 9.625ZM8.3334 8.625C7.11003 8.625 6.1183 7.61764 6.1183 6.375C6.1183 5.13236 7.11003 4.125 8.3334 4.125C9.55677 4.125 10.5485 5.13236 10.5485 6.375C10.5485 7.61764 9.55677 8.625 8.3334 8.625Z" fill="#676879"/>
</svg>
