<svg width="16" height="16" viewBox="0 0 16 16" fill="none" xmlns="http://www.w3.org/2000/svg">
<path fill-rule="evenodd" clip-rule="evenodd" d="M4 6H2.69244C1.75773 6 1 6.68215 1 7.52363V14.4764C1 15.3178 1.75773 16 2.69244 16H13.3076C14.2423 16 15 15.3178 15 14.4764V7.52363C15 6.68215 14.2423 6 13.3076 6H12V3.82353C12 1.70852 10.2061 0 8 0C5.79307 0 4 1.70816 4 3.82353V6ZM4.96241 6H11.0376V3.82353C11.0376 2.23397 9.68023 0.941176 8 0.941176C6.31903 0.941176 4.96241 2.23356 4.96241 3.82353V6ZM11.5188 7H4.4812H2.64636C2.28939 7 2 7.25489 2 7.5693V14.4307C2 14.7451 2.28939 15 2.64636 15H13.3536C13.7106 15 14 14.7451 14 14.4307V7.5693C14 7.25489 13.7106 7 13.3536 7H11.5188ZM8.52596 11.9688V9.59375C8.52596 9.31761 8.29054 9.09375 8.00014 9.09375C7.70973 9.09375 7.47432 9.31761 7.47432 9.59375V11.9688C7.47432 12.2449 7.70973 12.4688 8.00014 12.4688C8.29054 12.4688 8.52596 12.2449 8.52596 11.9688Z" fill="#676879"/>
</svg>
