<svg width="16" height="16" viewBox="0 0 16 16" fill="none" xmlns="http://www.w3.org/2000/svg">
<path fill-rule="evenodd" clip-rule="evenodd" d="M5.5282 0.5C5.5282 0.223858 5.30434 0 5.0282 0H0.503176H0.5C0.223858 0 0 0.223858 0 0.5C0 0.508364 0.00020535 0.516679 0.000611282 0.524942L0.000610629 15.4751C0.000205129 15.4833 0 15.4916 0 15.5C0 15.7761 0.223858 16 0.5 16H0.503175H5.0282C5.30434 16 5.5282 15.7761 5.5282 15.5C5.5282 15.2239 5.30434 15 5.0282 15H1.00574L1.00574 1L5.0282 1C5.30434 1 5.5282 0.776143 5.5282 0.5ZM14.2391 7.77439C14.2695 7.79366 14.2984 7.81653 14.325 7.84298C14.4307 7.94824 14.4794 8.08883 14.4708 8.22658C14.4673 8.34974 14.4183 8.47186 14.3239 8.56587C14.2976 8.59194 14.2693 8.61453 14.2393 8.63364L10.5851 12.2692C10.3893 12.464 10.0719 12.464 9.87609 12.2692C9.68029 12.0744 9.68029 11.7585 9.87609 11.5637L12.7769 8.67775L4.5 8.67775C4.22386 8.67775 4 8.45389 4 8.17775C4 7.90161 4.22386 7.67775 4.5 7.67775L12.7205 7.67775L9.88177 4.85355C9.68551 4.65829 9.68551 4.34171 9.88177 4.14645C10.078 3.95118 10.3962 3.95118 10.5925 4.14645L14.2391 7.77439Z" fill="#676879"/>
</svg>
