<svg width="16" height="16" viewBox="0 0 16 16" fill="none" xmlns="http://www.w3.org/2000/svg">
<path fill-rule="evenodd" clip-rule="evenodd" d="M16 8C16 12.4183 12.4183 16 8 16C3.58172 16 0 12.4183 0 8C0 3.58172 3.58172 0 8 0C12.4183 0 16 3.58172 16 8ZM1.00412 8.00001C1.00412 11.8638 4.13637 14.9961 8.0002 14.9961C11.864 14.9961 14.9963 11.8638 14.9963 8.00001C14.9963 4.13618 11.864 1.00393 8.0002 1.00393C4.13637 1.00393 1.00412 4.13618 1.00412 8.00001ZM13.0729 7.63414C13.0815 7.64162 13.0899 7.64944 13.098 7.6576C13.294 7.85363 13.294 8.17145 13.098 8.36748L9.37115 12.0943C9.17512 12.2904 8.8573 12.2904 8.66127 12.0943C8.46524 11.8983 8.46524 11.5805 8.66127 11.3845L11.5312 8.51449H3.24382C2.9666 8.51449 2.74186 8.28975 2.74186 8.01253C2.74186 7.7353 2.9666 7.51057 3.24382 7.51057H11.5296L8.65968 4.64066C8.46365 4.44463 8.46365 4.1268 8.65968 3.93078C8.85571 3.73475 9.17353 3.73475 9.36956 3.93078L13.0729 7.63414Z" fill="#676879"/>
</svg>
