<svg width="17" height="16" viewBox="0 0 17 16" fill="none" xmlns="http://www.w3.org/2000/svg">
<path fill-rule="evenodd" clip-rule="evenodd" d="M8.00224 0C11.7318 0 14.7546 2.92966 14.7546 6.54194C14.7546 10.1598 15.154 12.2895 15.808 12.7983C16.1886 13.0944 15.9716 13.6875 15.4826 13.6875H11.0294C10.7238 15.012 9.46665 16 7.96869 16C6.47031 16 5.21348 15.0121 4.90793 13.6875H0.521227C0.0895936 13.6875 -0.152931 13.2083 0.11252 12.88C0.850544 11.9672 1.24986 9.83846 1.24986 6.54194C1.24986 2.92945 4.27225 0 8.00224 0ZM5.98513 13.6875C6.26575 14.4493 7.0453 15 7.96869 15C8.89171 15 9.67142 14.4492 9.95217 13.6875H5.98513ZM14.4996 12.6875C13.9579 11.5222 13.7174 9.49246 13.7174 6.54194C13.7174 3.4809 11.1576 1 8.00163 1C4.84525 1 2.28587 3.48067 2.28587 6.54194C2.28587 9.36194 2.00707 11.4015 1.41732 12.6875H14.4996Z" fill="#676879"/>
</svg>
