<svg width="16" height="16" viewBox="0 0 16 16" fill="none" xmlns="http://www.w3.org/2000/svg">
<path fill-rule="evenodd" clip-rule="evenodd" d="M11.905 3.78125C11.905 5.87275 10.1394 7.5625 7.9685 7.5625C5.79761 7.5625 4.03199 5.87275 4.03199 3.78125C4.03199 1.68975 5.79761 0 7.9685 0C10.1394 0 11.905 1.68975 11.905 3.78125ZM10.889 3.78125C10.889 2.24844 9.58454 1 7.96839 1C6.35225 1 5.04776 2.24844 5.04776 3.78125C5.04776 5.31406 6.35225 6.5625 7.96839 6.5625C9.58454 6.5625 10.889 5.31406 10.889 3.78125ZM15.3337 15.5C15.3337 11.5969 12.0477 8.4375 8.00033 8.4375C3.95294 8.4375 0.666992 11.5969 0.666992 15.5C0.666992 15.7761 0.894403 16 1.17493 16H14.8257C15.1062 16 15.3337 15.7761 15.3337 15.5ZM1.70399 15C1.96888 11.8879 4.68435 9.4375 8.00026 9.4375C11.3162 9.4375 14.0316 11.8879 14.2965 15H1.70399Z" fill="#676879"/>
</svg>
