<svg width="16" height="16" viewBox="0 0 16 16" fill="none" xmlns="http://www.w3.org/2000/svg">
<g clip-path="url(#clip0)">
<path fill-rule="evenodd" clip-rule="evenodd" d="M4.14547 1.14645C4.23924 1.05268 4.36642 1 4.49902 1H11.499C11.6316 1 11.7588 1.05268 11.8526 1.14645C11.9463 1.24022 11.999 1.36739 11.999 1.5V4H3.99902V1.5C3.99902 1.36739 4.0517 1.24021 4.14547 1.14645ZM2.99902 4V1.5C2.99902 1.10218 3.15706 0.720645 3.43836 0.43934C3.71967 0.158035 4.1012 0 4.49902 0H11.499C11.8968 0 12.2784 0.158036 12.5597 0.43934C12.841 0.720644 12.999 1.10217 12.999 1.5V4H14.499C14.8968 4 15.2784 4.15804 15.5597 4.43934C15.841 4.72064 15.999 5.10217 15.999 5.5V10.5C15.999 10.8978 15.841 11.2794 15.5597 11.5607C15.2784 11.842 14.8968 12 14.499 12H12.999V15.5C12.999 15.7761 12.7752 16 12.499 16H3.49902C3.22288 16 2.99902 15.7761 2.99902 15.5V12H1.49902C1.1012 12 0.719667 11.842 0.438363 11.5607C0.157059 11.2794 -0.000976562 10.8978 -0.000976562 10.5V5.5C-0.000976562 5.10218 0.157059 4.72064 0.438363 4.43934C0.719668 4.15803 1.1012 4 1.49902 4H2.99902ZM3.49902 5H1.49902C1.36642 5 1.23924 5.05268 1.14547 5.14645C1.0517 5.24021 0.999023 5.36739 0.999023 5.5V10.5C0.999023 10.6326 1.0517 10.7598 1.14547 10.8536C1.23924 10.9473 1.36642 11 1.49902 11H2.99902V8.5C2.99902 8.22386 3.22288 8 3.49902 8H12.499C12.7752 8 12.999 8.22386 12.999 8.5V11H14.499C14.6316 11 14.7588 10.9473 14.8526 10.8536C14.9463 10.7598 14.999 10.6326 14.999 10.5V5.5C14.999 5.36739 14.9463 5.24022 14.8526 5.14645C14.7588 5.05268 14.6316 5 14.499 5H12.499H3.49902ZM11.999 9V11.5V15H3.99902V11.5V9H11.999ZM2.49902 6C2.22288 6 1.99902 6.22386 1.99902 6.5C1.99902 6.77614 2.22288 7 2.49902 7H3.49902C3.77517 7 3.99902 6.77614 3.99902 6.5C3.99902 6.22386 3.77517 6 3.49902 6H2.49902ZM4.99902 10.5C4.99902 10.2239 5.22288 10 5.49902 10H10.499C10.7752 10 10.999 10.2239 10.999 10.5C10.999 10.7761 10.7752 11 10.499 11H5.49902C5.22288 11 4.99902 10.7761 4.99902 10.5ZM5.49902 12C5.22288 12 4.99902 12.2239 4.99902 12.5C4.99902 12.7761 5.22288 13 5.49902 13H8.99902C9.27517 13 9.49902 12.7761 9.49902 12.5C9.49902 12.2239 9.27517 12 8.99902 12H5.49902Z" fill="#676879"/>
</g>
<defs>
<clipPath id="clip0">
<rect width="16" height="16" fill="white"/>
</clipPath>
</defs>
</svg>
