<svg width="16" height="16" viewBox="0 0 16 16" fill="none" xmlns="http://www.w3.org/2000/svg">
<path d="M12.018 6.41441V4.32432C12.018 1.94595 10.0721 0 7.69369 0C5.31532 0 3.36937 1.94595 3.36937 4.32432V6.55856C2.5045 7.56757 2 8.86486 2 10.2342C2 13.4054 4.59459 16 7.76577 16C10.9369 16 13.5315 13.4054 13.5315 10.2342C13.4595 8.79279 12.955 7.49549 12.018 6.41441Z" fill="white"/>
<path d="M12.018 6.41441V4.32432C12.018 1.94595 10.0721 0 7.69369 0C5.31532 0 3.36937 1.94595 3.36937 4.32432V6.55856C2.5045 7.56757 2 8.86486 2 10.2342C2 13.4054 4.59459 16 7.76577 16C10.9369 16 13.5315 13.4054 13.5315 10.2342C13.4595 8.79279 12.955 7.4955 12.018 6.41441ZM4.81081 5.33333V4.32432C4.81081 2.73874 6.10811 1.44144 7.69369 1.44144C9.27928 1.44144 10.5766 2.73874 10.5766 4.32432V5.26126C9.78378 4.75676 8.77477 4.54054 7.76577 4.54054C6.68468 4.54054 5.67568 4.82883 4.81081 5.33333Z" fill="#F65F7C"/>
<path d="M7.65768 9C7.01056 9 6.48535 9.52521 6.48535 10.1723C6.48535 10.5819 6.69793 10.9383 7.01056 11.1477V12.7046C7.01056 13.061 7.29504 13.3517 7.65143 13.3517C8.00782 13.3517 8.29231 13.0641 8.29231 12.7046V11.1477C8.63619 10.9383 8.82377 10.5787 8.82377 10.1723C8.82377 9.52521 8.30481 9 7.65768 9Z" fill="white"/>
</svg>
