<svg width="16" height="16" viewBox="0 0 16 16" fill="none" xmlns="http://www.w3.org/2000/svg">
<path d="M12.1383 6.86831V4.38296C12.1383 1.92575 10.2157 0 7.76163 0H7.4365C5.02618 0 3.13482 1.92575 3.13482 4.38296V7.00274C2.41579 7.93122 2 9.08167 2 10.3415C2 13.4678 4.53224 16 7.65846 16C10.7816 16 13.3138 13.4678 13.3138 10.3415C13.3138 9.01915 12.8886 7.81868 12.1383 6.86831ZM3.85385 4.38296C3.85385 2.29465 5.39508 0.719031 7.4365 0.719031H7.76163C9.81243 0.719031 11.4193 2.32903 11.4193 4.38296V6.08675C11.3568 6.02423 11.263 5.96483 11.1817 5.90856C10.2407 5.17702 9.05276 4.74248 7.746 4.74248C6.76124 4.74248 5.82337 4.98945 5.00743 5.42399C4.59164 5.60219 4.20086 5.8179 3.85698 6.07425V4.38296H3.85385ZM7.65846 15.2778C4.93552 15.2778 2.72216 13.0645 2.72216 10.3415C2.72216 8.5127 3.76632 6.9152 5.30754 6.0805C6.1016 5.74599 7.00195 5.57093 7.73349 5.57093C8.87456 5.57093 9.90934 5.8898 10.7691 6.50254C11.8882 7.38726 12.5948 8.76592 12.5948 10.3415C12.5948 13.0614 10.3814 15.2778 7.65846 15.2778Z" fill="#F65F7C"/>
<path d="M7.65768 8.49414C7.01056 8.49414 6.48535 9.01935 6.48535 9.66647C6.48535 10.076 6.69793 10.4324 7.01056 10.6419V12.1987C7.01056 12.5551 7.29504 12.8458 7.65143 12.8458C8.00782 12.8458 8.29231 12.5582 8.29231 12.1987V10.6419C8.63619 10.4324 8.82377 10.0729 8.82377 9.66647C8.82377 9.01935 8.30481 8.49414 7.65768 8.49414Z" fill="#F65F7C"/>
</svg>
