<svg width="16" height="16" viewBox="0 0 16 16" fill="none" xmlns="http://www.w3.org/2000/svg">
<path fill-rule="evenodd" clip-rule="evenodd" d="M6.875 0C10.6548 0 13.7187 3.06395 13.7187 6.84375C13.7187 8.59207 13.0632 10.1872 11.9845 11.3969L15.8179 15.1424C16.0154 15.3354 16.0191 15.6519 15.8261 15.8494C15.6332 16.0469 15.3166 16.0506 15.1191 15.8576L11.2663 12.0932C10.0778 13.0884 8.54641 13.6875 6.875 13.6875C3.0952 13.6875 0.03125 10.6235 0.03125 6.84375C0.03125 3.06395 3.0952 0 6.875 0ZM6.875 1C3.64749 1 1.03125 3.61624 1.03125 6.84375C1.03125 10.0713 3.64749 12.6875 6.875 12.6875C10.1025 12.6875 12.7187 10.0713 12.7187 6.84375C12.7187 3.61624 10.1025 1 6.875 1Z" fill="#676879"/>
</svg>
