<svg width="16" height="16" viewBox="0 0 16 16" fill="none" xmlns="http://www.w3.org/2000/svg">
<path fill-rule="evenodd" clip-rule="evenodd" d="M13 5C14.1046 5 15 4.10457 15 3C15 1.89543 14.1046 1 13 1C11.8954 1 11 1.89543 11 3C11 4.10457 11.8954 5 13 5ZM13 6C14.6569 6 16 4.65685 16 3C16 1.34315 14.6569 0 13 0C11.3431 0 10 1.34315 10 3C10 3.19871 10.0193 3.3929 10.0562 3.58081L5.43581 6.24838C4.89112 5.49226 4.00305 5 3 5C1.34315 5 0 6.34315 0 8C0 9.65685 1.34315 11 3 11C3.8877 11 4.68534 10.6144 5.23461 10.0017L10.0096 12.7585C10.0032 12.8382 10 12.9187 10 13C10 14.6569 11.3431 16 13 16C14.6569 16 16 14.6569 16 13C16 11.3431 14.6569 10 13 10C11.7876 10 10.7432 10.7192 10.2701 11.7542L5.76932 9.15567C5.91792 8.79999 6 8.40958 6 8C6 7.70409 5.95716 7.4182 5.87734 7.14817L10.4172 4.52708C10.9397 5.40883 11.9008 6 13 6ZM3 10C4.10457 10 5 9.10457 5 8C5 6.89543 4.10457 6 3 6C1.89543 6 1 6.89543 1 8C1 9.10457 1.89543 10 3 10ZM15 13C15 14.1046 14.1046 15 13 15C11.8954 15 11 14.1046 11 13C11 11.8954 11.8954 11 13 11C14.1046 11 15 11.8954 15 13Z" fill="#676879"/>
</svg>
