<svg width="16" height="16" viewBox="0 0 16 16" fill="none" xmlns="http://www.w3.org/2000/svg">
<path fill-rule="evenodd" clip-rule="evenodd" d="M0.278191 7.11499C2.35573 4.16301 4.94129 2.6665 8 2.6665C11.0587 2.6665 13.6443 4.16301 15.7218 7.11499C16.0927 7.64203 16.0927 8.35765 15.7218 8.88469C13.6443 11.8367 11.0587 13.3332 8 13.3332C4.94129 13.3332 2.35573 11.8367 0.278191 8.88469C-0.0927303 8.35765 -0.0927303 7.64203 0.278191 7.11499ZM1.08712 7.72894C0.973574 7.89028 0.973574 8.10934 1.08712 8.27068C2.98373 10.9656 5.27629 12.2925 7.99969 12.2925C10.7231 12.2925 13.0157 10.9656 14.9123 8.27068C15.0258 8.10935 15.0258 7.89028 14.9123 7.72894C13.0157 5.03405 10.7231 3.70713 7.99969 3.70713C5.27629 3.70713 2.98373 5.03405 1.08712 7.72894ZM8.03152 6.11358C9.0521 6.11358 9.87945 6.97261 9.87945 8.03228C9.87945 9.09195 9.0521 9.95098 8.03152 9.95098C7.01093 9.95098 6.18358 9.09195 6.18358 8.03228C6.18358 6.97261 7.01093 6.11358 8.03152 6.11358ZM8.03121 7.15416C7.56416 7.15416 7.18554 7.54728 7.18554 8.03221C7.18554 8.51714 7.56416 8.91026 8.03121 8.91026C8.49825 8.91026 8.87687 8.51714 8.87687 8.03221C8.87687 7.54728 8.49825 7.15416 8.03121 7.15416Z" fill="#676879"/>
</svg>
