<svg width="24" height="24" viewBox="0 0 24 24" fill="none" xmlns="http://www.w3.org/2000/svg">
<circle cx="12" cy="12" r="12" fill="#0085FF"/>
<path fill-rule="evenodd" clip-rule="evenodd" d="M15.9165 11.0479C15.8873 11.0956 15.8328 11.125 15.7734 11.125H8.22656C8.16717 11.125 8.1127 11.0956 8.08383 11.0479C8.06939 11.0245 8.0625 10.9987 8.0625 10.9732C8.0625 10.9459 8.07037 10.9189 8.08612 10.8946L11.8596 5.12783C11.8894 5.08231 11.9426 5.05469 12 5.05469C12.0574 5.05469 12.1106 5.08231 12.1404 5.12814L15.9139 10.8949C15.9441 10.942 15.9454 11.0006 15.9165 11.0479ZM15.9712 13.1152C16.0001 13.162 15.9987 13.2199 15.9686 13.2663L12.1951 18.8181C12.1653 18.8634 12.1121 18.8907 12.0547 18.8907C11.9973 18.8907 11.9441 18.8634 11.9142 18.8184L8.14081 13.2666C8.12506 13.2427 8.11719 13.216 8.11719 13.189C8.11719 13.1638 8.12408 13.1383 8.13852 13.1152C8.16739 13.0681 8.22186 13.0391 8.28125 13.0391H15.8281C15.8875 13.0391 15.942 13.0681 15.9712 13.1152Z" fill="white"/>
</svg>
