<svg width="16" height="16" viewBox="0 0 16 16" fill="none" xmlns="http://www.w3.org/2000/svg">
<rect width="16" height="16" fill="white"/>
<path fill-rule="evenodd" clip-rule="evenodd" d="M14.625 2.625H1.375C1.16789 2.625 1 2.79289 1 3V4.625H15V3C15 2.79289 14.8321 2.625 14.625 2.625ZM0 3V5.125V13.0625C0 13.8219 0.615609 14.4375 1.375 14.4375H14.625C15.3844 14.4375 16 13.8219 16 13.0625V5.125V3C16 2.24061 15.3844 1.625 14.625 1.625H1.375C0.615609 1.625 0 2.24061 0 3ZM15 13.0625V5.625H1V13.0625C1 13.2696 1.16789 13.4375 1.375 13.4375H14.625C14.8321 13.4375 15 13.2696 15 13.0625ZM2.5 4.125C2.77614 4.125 3 3.90114 3 3.625C3 3.34886 2.77614 3.125 2.5 3.125C2.22386 3.125 2 3.34886 2 3.625C2 3.90114 2.22386 4.125 2.5 4.125ZM4.1875 4.125C4.46364 4.125 4.6875 3.90114 4.6875 3.625C4.6875 3.34886 4.46364 3.125 4.1875 3.125C3.91136 3.125 3.6875 3.34886 3.6875 3.625C3.6875 3.90114 3.91136 4.125 4.1875 4.125ZM6.375 3.625C6.375 3.90114 6.15114 4.125 5.875 4.125C5.59886 4.125 5.375 3.90114 5.375 3.625C5.375 3.34886 5.59886 3.125 5.875 3.125C6.15114 3.125 6.375 3.34886 6.375 3.625ZM8.85054 7.06502C9.03092 7.08354 9.18712 7.19827 9.25877 7.36484L10.4325 10.0938L10.9853 9.2876C11.0785 9.15163 11.2328 9.07035 11.3977 9.07035H13.4375C13.7136 9.07035 13.9375 9.29421 13.9375 9.57035C13.9375 9.8465 13.7136 10.0704 13.4375 10.0704H11.6611L10.7441 11.4077C10.6411 11.5579 10.4644 11.6403 10.2831 11.6225C10.1018 11.6048 9.94441 11.4898 9.87242 11.3225L8.69452 8.5839L7.07715 10.8935C6.97278 11.0426 6.7957 11.1231 6.61478 11.1039C6.43385 11.0847 6.27765 10.9687 6.20692 10.8011L5.48835 9.09819L4.94235 9.8613C4.84847 9.99251 4.69705 10.0704 4.53571 10.0704H2.5625C2.28636 10.0704 2.0625 9.8465 2.0625 9.57035C2.0625 9.29421 2.28636 9.07035 2.5625 9.07035H4.27866L5.19502 7.78964C5.30036 7.64241 5.47705 7.56362 5.65697 7.58365C5.8369 7.60368 5.99194 7.71941 6.06232 7.8862L6.77671 9.57922L8.38989 7.27559C8.4939 7.12707 8.67017 7.04649 8.85054 7.06502Z" fill="#676879"/>
</svg>
