<svg width="16" height="16" viewBox="0 0 16 16" fill="none" xmlns="http://www.w3.org/2000/svg">
<path d="M14.3212 2.37445C14.4277 2.06048 14.1279 1.76071 13.8139 1.86718L11.3217 2.7123C11.1971 2.75458 11.0596 2.73281 10.954 2.65407L8.845 1.08018C8.57929 0.881898 8.20156 1.07436 8.2058 1.40587L8.23943 4.03723C8.24112 4.16887 8.17791 4.29291 8.07042 4.36893L5.92184 5.8884C5.65115 6.07982 5.71747 6.49854 6.03406 6.59695L8.54703 7.3781C8.67275 7.41718 8.77119 7.51562 8.81027 7.64134L9.59142 10.1543C9.68983 10.4709 10.1085 10.5372 10.3 10.2665L11.8194 8.11795C11.8955 8.01046 12.0195 7.94726 12.1511 7.94894L14.7825 7.98257C15.114 7.98681 15.3065 7.60908 15.1082 7.34337L13.5343 5.23432C13.4556 5.12881 13.4338 4.99131 13.4761 4.86663L14.3212 2.37445Z" fill="#676879"/>
<path d="M8.21751 7.97086C8.02225 7.77559 7.70567 7.77559 7.51041 7.97086L1.14645 14.3348C0.951185 14.5301 0.951184 14.8467 1.14645 15.0419C1.34171 15.2372 1.65829 15.2372 1.85355 15.0419L8.21751 8.67796C8.41278 8.4827 8.41278 8.16612 8.21751 7.97086Z" fill="#676879"/>
</svg>
