<svg width="16" height="16" viewBox="0 0 16 16" fill="none" xmlns="http://www.w3.org/2000/svg">
<path fill-rule="evenodd" clip-rule="evenodd" d="M12.3332 2.8766L13.6776 2.32202L13.1231 3.66642C12.9054 4.19398 13.0013 4.79895 13.3713 5.23343L14.3141 6.34066L12.8642 6.22867C12.2952 6.18473 11.7494 6.4628 11.4505 6.94895L10.6889 8.18783L10.3473 6.77421C10.2133 6.2195 9.78016 5.78639 9.22545 5.65236L7.81183 5.3108L9.05071 4.54913C9.53686 4.25024 9.81493 3.70449 9.77099 3.1355L9.659 1.68553L10.7662 2.6284C11.2007 2.9984 11.8057 3.09421 12.3332 2.8766ZM14.4182 0.91902C14.8354 0.74695 15.2527 1.16428 15.0806 1.58142L14.061 4.05331C13.9884 4.22917 14.0204 4.43082 14.1437 4.57565L15.8773 6.61147C16.1699 6.95501 15.9019 7.48088 15.452 7.44614L12.786 7.24023C12.5964 7.22558 12.4145 7.31827 12.3148 7.48032L10.9144 9.7582C10.678 10.1426 10.0951 10.0503 9.98913 9.61165L9.36111 7.0125C9.31644 6.82759 9.17207 6.68322 8.98716 6.63855L6.38801 6.01053C5.9494 5.90456 5.85707 5.32162 6.24146 5.0853L8.51934 3.68484C8.68139 3.58521 8.77408 3.40329 8.75943 3.21363L8.55352 0.547623C8.51878 0.0977341 9.04465 -0.170211 9.38819 0.122338L11.424 1.85596C11.5688 1.97929 11.7705 2.01123 11.9463 1.93869L14.4182 0.91902ZM8.05326 8.00199C7.85799 7.80673 7.54141 7.80673 7.34615 8.00199L0.630822 14.7173C0.435559 14.9126 0.435559 15.2292 0.630822 15.4244C0.826084 15.6197 1.14267 15.6197 1.33793 15.4244L8.05326 8.7091C8.24852 8.51384 8.24852 8.19725 8.05326 8.00199Z" fill="#676879"/>
</svg>
