<svg width="16" height="16" viewBox="0 0 16 16" fill="none" xmlns="http://www.w3.org/2000/svg">
<path fill-rule="evenodd" clip-rule="evenodd" d="M4 6H2.69533C1.75903 6 1 6.66407 1 7.48323V14.5168C1 15.3359 1.75903 16 2.69533 16H13.3047C14.241 16 15 15.3359 15 14.5168V7.48323C15 6.66407 14.241 6 13.3047 6H4.99998V3.78641C4.99998 2.20956 6.37673 0.932039 8.07746 0.932039C8.93091 0.932039 9.72766 1.25529 10.3051 1.81691C10.5772 2.08151 10.8436 2.58498 11.0218 3.12748C11.1027 3.37358 11.3822 3.51198 11.6463 3.43662C11.9103 3.36126 12.0588 3.10067 11.978 2.85458C11.758 2.18516 11.4286 1.5625 11.0271 1.17203C10.2628 0.428692 9.20615 0 8.07746 0C5.82545 0 4 1.69388 4 3.78641V6ZM4.49999 7H2.62171C2.27835 7 2 7.23704 2 7.52944V14.4706C2 14.763 2.27835 15 2.62171 15H13.3783C13.7216 15 14 14.763 14 14.4706V7.52944C14 7.23704 13.7216 7 13.3783 7H4.49999ZM8.54101 11.9062V9.53125C8.54101 9.25511 8.29876 9.03125 7.99994 9.03125C7.70112 9.03125 7.45888 9.25511 7.45888 9.53125V11.9062C7.45888 12.1824 7.70112 12.4062 7.99994 12.4062C8.29876 12.4062 8.54101 12.1824 8.54101 11.9062Z" fill="#676879"/>
</svg>
