<svg width="16" height="16" viewBox="0 0 16 16" fill="none" xmlns="http://www.w3.org/2000/svg">
<path d="M6.33359 0H1.00086C0.448641 0 0.000976543 0.447706 0.000976543 0.99998V6.3332C0.000976543 6.88548 0.448641 7.33318 1.00086 7.33318H6.33359C6.88581 7.33318 7.33348 6.88548 7.33348 6.3332V0.99998C7.33348 0.447706 6.88581 0 6.33359 0Z" fill="#676879"/>
<path d="M14.9994 0H9.6667C9.11448 0 8.66682 0.447706 8.66682 0.99998V6.3332C8.66682 6.88548 9.11448 7.33318 9.6667 7.33318H14.9994C15.5517 7.33318 15.9993 6.88548 15.9993 6.3332V0.99998C15.9993 0.447706 15.5517 0 14.9994 0Z" fill="#676879"/>
<path d="M6.33261 8.66682H0.999887C0.447664 8.66682 0 9.11452 0 9.6668V15C0 15.5523 0.447664 16 0.999887 16H6.33261C6.88484 16 7.3325 15.5523 7.3325 15V9.6668C7.3325 9.11452 6.88484 8.66682 6.33261 8.66682Z" fill="#676879"/>
<path d="M14.9994 8.66682H9.6667C9.11448 8.66682 8.66682 9.11452 8.66682 9.6668V15C8.66682 15.5523 9.11448 16 9.6667 16H14.9994C15.5517 16 15.9993 15.5523 15.9993 15V9.6668C15.9993 9.11452 15.5517 8.66682 14.9994 8.66682Z" fill="#676879"/>
</svg>
