<svg width="16" height="16" viewBox="0 0 16 16" fill="none" xmlns="http://www.w3.org/2000/svg">
<path d="M1.00086 0.49999H6.33359C6.60963 0.49999 6.83349 0.723799 6.83349 0.99998V6.3332C6.83349 6.60939 6.60963 6.83319 6.33359 6.83319H1.00086C0.724822 6.83319 0.500966 6.60939 0.500966 6.3332V0.99998C0.500966 0.723799 0.724822 0.49999 1.00086 0.49999Z" stroke="#676879"/>
<path d="M9.6667 0.49999H14.9994C15.2755 0.49999 15.4993 0.723799 15.4993 0.99998V6.3332C15.4993 6.60939 15.2755 6.83319 14.9994 6.83319H9.6667C9.39066 6.83319 9.16681 6.60939 9.16681 6.3332V0.99998C9.16681 0.723799 9.39066 0.49999 9.6667 0.49999Z" stroke="#676879"/>
<path d="M0.999887 9.16681H6.33261C6.60866 9.16681 6.83251 9.39061 6.83251 9.6668V15C6.83251 15.2762 6.60866 15.5 6.33261 15.5H0.999887C0.723845 15.5 0.49999 15.2762 0.49999 15V9.6668C0.49999 9.39061 0.723845 9.16681 0.999887 9.16681Z" stroke="#676879"/>
<path d="M9.6667 9.16681H14.9994C15.2755 9.16681 15.4993 9.39061 15.4993 9.6668V15C15.4993 15.2762 15.2755 15.5 14.9994 15.5H9.6667C9.39066 15.5 9.16681 15.2762 9.16681 15V9.6668C9.16681 9.39061 9.39066 9.16681 9.6667 9.16681Z" stroke="#676879"/>
</svg>
